<?xml version="1.0" standalone="no"?>
<!DOCTYPE svg PUBLIC "-//W3C//DTD SVG 20010904//EN"
 "http://www.w3.org/TR/2001/REC-SVG-20010904/DTD/svg10.dtd">
<svg version="1.0" xmlns="http://www.w3.org/2000/svg"
 width="1024.000000pt" height="1024.000000pt" viewBox="0 0 1024.000000 1024.000000"
 preserveAspectRatio="xMidYMid meet">
<metadata>
Created by potrace 1.11, written by Peter Selinger 2001-2013
</metadata>
<g transform="translate(0.000000,1024.000000) scale(0.100000,-0.100000)"
fill="#000000" stroke="none">
<path d="M0 6345 c0 -1853 3 -2615 11 -2615 6 0 18 -7 27 -17 16 -15 15 -16
-11 -11 -26 5 -28 3 -25 -26 2 -23 8 -31 21 -29 17 1 17 -1 -3 -19 -17 -16
-19 -23 -9 -34 14 -17 39 -19 39 -2 0 6 7 4 18 -5 10 -10 24 -17 31 -17 7 0
10 -4 7 -9 -3 -4 6 -13 19 -19 35 -16 24 -51 -14 -52 -12 0 -11 3 2 13 19 14
12 29 -20 46 -30 15 -38 14 -23 -4 7 -9 10 -19 6 -23 -4 -4 -13 1 -20 11 -7 9
-16 17 -20 17 -4 0 3 -14 15 -31 22 -31 23 -32 31 -10 4 13 13 19 19 15 8 -4
7 -9 -2 -15 -11 -8 -10 -12 5 -24 10 -8 23 -12 28 -9 5 3 18 -2 28 -11 22 -20
36 -4 21 22 -6 10 -11 12 -11 6 0 -7 -4 -13 -10 -13 -17 0 1 28 21 33 10 3 17
1 13 -4 -3 -5 0 -9 6 -9 6 0 8 -5 5 -10 -3 -6 1 -13 11 -17 15 -6 14 -7 -5
-15 -15 -5 -21 -14 -17 -23 3 -8 1 -15 -4 -15 -6 0 -10 5 -10 11 0 5 -5 7 -11
4 -15 -10 -2 -19 29 -20 25 0 27 -3 24 -38 -2 -24 1 -36 7 -33 6 4 8 13 5 20
-6 16 36 29 61 20 16 -6 16 -5 1 24 -14 28 -14 31 2 43 15 12 16 12 5 -2 -15
-18 -8 -29 19 -29 16 0 22 10 20 31 -1 3 6 6 14 6 9 0 13 -6 9 -15 -3 -9 0
-20 7 -25 9 -6 8 -7 -5 -3 -9 3 -17 1 -17 -3 0 -5 -10 -7 -21 -4 -19 5 -20 4
-10 -16 11 -20 13 -20 38 -4 l26 17 -14 -24 c-19 -33 -32 -42 -41 -27 -4 7 -8
8 -8 4 0 -5 -7 -1 -16 7 -19 20 -40 11 -23 -10 6 -8 18 -14 25 -14 8 0 14 -7
14 -15 0 -8 5 -15 10 -15 6 0 10 -6 8 -14 -2 -8 2 -15 7 -14 6 0 9 5 7 11 -2
5 3 14 10 18 10 7 9 9 -4 9 -10 0 -18 5 -18 11 0 6 6 9 14 6 8 -3 17 1 20 9 3
8 16 13 28 13 23 -2 23 -2 1 -6 -14 -3 -21 -11 -20 -24 1 -17 7 -20 35 -17 24
3 31 1 28 -9 -3 -7 -1 -13 4 -13 6 0 10 6 11 13 1 6 2 21 3 31 0 11 8 21 16
23 13 4 13 3 1 -5 -12 -9 -12 -13 -2 -26 9 -11 10 -16 2 -16 -6 0 -11 -4 -11
-10 0 -5 5 -9 11 -7 6 1 13 -6 14 -15 2 -11 -3 -18 -12 -18 -13 0 -13 2 -2 17
8 9 9 14 3 10 -24 -14 -63 -15 -68 -1 -6 16 -36 19 -36 4 0 -5 8 -10 18 -10
14 0 15 -2 2 -10 -13 -8 -12 -10 5 -11 11 -1 26 -1 33 0 6 1 12 -2 12 -8 0 -5
10 -6 23 -3 21 5 21 5 5 -12 -10 -10 -18 -20 -18 -23 0 -4 3 -3 7 0 3 4 12 2
20 -5 11 -9 13 -8 11 2 -2 8 6 15 17 17 16 3 17 2 5 -6 -19 -13 -1 -14 20 -1
12 7 11 10 -5 17 -11 4 -21 14 -22 20 -4 20 7 15 32 -12 18 -19 24 -21 29 -10
3 8 3 22 0 30 -11 28 4 15 20 -17 19 -36 20 -48 6 -48 -5 0 -10 7 -10 16 0 14
-2 14 -15 0 -20 -19 -19 -23 6 -29 15 -4 20 -11 16 -21 -4 -9 -2 -16 3 -16 6
0 10 7 10 15 0 8 7 15 16 15 9 0 14 -6 11 -13 -4 -10 5 -13 31 -12 46 2 81
-13 61 -26 -11 -6 -10 -9 4 -15 9 -3 17 -12 17 -20 0 -8 -6 -11 -15 -8 -8 4
-15 12 -15 20 0 8 -6 14 -12 14 -9 0 -8 4 2 11 12 9 11 10 -6 6 -12 -2 -28 -1
-36 4 -7 4 -20 4 -27 -1 -10 -6 -8 -10 8 -15 21 -6 21 -8 7 -24 -15 -16 -14
-18 6 -17 13 1 27 7 31 14 13 21 38 -17 26 -40 -7 -13 -4 -18 12 -23 19 -7 20
-7 2 -21 -10 -7 -13 -14 -7 -14 20 0 37 29 32 55 -3 14 -1 25 4 25 5 0 7 4 4
8 -2 4 6 8 19 8 13 0 21 -4 19 -8 -3 -4 1 -8 8 -8 7 0 -2 -13 -20 -30 -22 -19
-30 -34 -25 -42 5 -9 9 -6 11 10 3 20 8 23 28 18 17 -5 22 -3 18 7 -7 21 18
35 46 26 21 -6 22 -7 5 -8 -18 -2 -19 -2 -2 -12 9 -5 23 -7 30 -3 6 4 9 4 5 0
-4 -5 5 -19 20 -33 l27 -24 -25 7 c-14 4 -28 12 -32 18 -4 6 -30 11 -57 11
-45 1 -48 -1 -29 -11 12 -7 29 -9 37 -6 9 4 12 1 7 -7 -6 -8 -1 -11 16 -10 39
3 59 0 53 -10 -3 -5 4 -12 15 -16 35 -11 22 -26 -17 -21 -21 3 -30 3 -20 0 9
-3 17 -12 17 -20 0 -12 4 -12 21 -2 17 11 23 11 26 0 3 -6 10 -9 16 -5 6 4 8
0 4 -10 -4 -11 -1 -15 12 -14 27 2 40 21 24 35 -10 10 -13 10 -13 -3 0 -15 -2
-15 -15 -1 -17 16 -20 30 -5 21 12 -7 51 31 42 41 -4 4 -1 4 7 -1 12 -7 11
-10 -2 -20 -23 -16 -21 -25 3 -25 11 0 20 -5 20 -11 0 -6 7 -8 16 -5 19 7 54
-10 54 -28 0 -8 11 -13 30 -12 16 1 30 4 30 9 0 4 10 6 23 6 16 -1 18 -2 5 -6
-10 -2 -18 -9 -18 -15 0 -5 -7 -8 -15 -4 -21 7 -49 -22 -35 -38 5 -7 7 -16 3
-19 -3 -4 -1 -7 6 -7 6 0 23 11 36 24 14 14 27 21 30 16 3 -4 -1 -11 -7 -13
-8 -4 -7 -6 4 -6 9 -1 20 -6 24 -13 4 -6 3 -8 -3 -5 -12 7 -39 -20 -30 -29 3
-3 16 1 29 10 28 20 38 20 38 1 0 -8 5 -15 11 -15 5 0 7 5 3 12 -5 8 -2 9 10
5 10 -4 20 -7 22 -7 3 0 2 -4 -1 -10 -3 -5 -1 -10 4 -10 6 0 11 5 11 10 0 14
51 59 67 60 6 0 15 -4 18 -10 3 -5 0 -7 -9 -4 -9 3 -27 -6 -43 -21 -16 -16
-21 -25 -12 -22 24 8 33 -42 10 -51 -9 -3 -19 -10 -22 -15 -7 -10 -29 -1 -29
13 0 4 11 11 25 14 14 4 25 11 25 16 0 5 -22 -1 -49 -13 -29 -13 -44 -25 -37
-29 6 -4 12 -3 14 2 2 5 9 4 17 -3 9 -8 10 -18 4 -29 -6 -12 -6 -18 1 -18 5 0
10 6 10 14 0 16 27 29 41 20 5 -3 9 2 9 10 0 9 7 16 15 16 12 0 13 4 5 19 -12
23 -13 31 -2 30 4 -1 15 -1 26 0 15 1 16 4 6 16 -11 13 -10 14 4 9 9 -4 15
-12 13 -18 -2 -6 5 -16 17 -22 19 -11 18 -13 -19 -29 -29 -13 -35 -19 -22 -22
9 -3 17 -9 17 -14 0 -6 -5 -7 -12 -3 -7 4 -8 3 -4 -5 9 -14 26 -5 26 14 0 8 8
19 18 24 22 12 63 11 56 -1 -7 -11 8 -10 26 2 8 5 11 10 5 10 -13 0 17 20 30
20 6 0 4 -4 -4 -9 -12 -8 -12 -12 -2 -24 8 -11 9 -17 1 -22 -6 -3 -7 -11 -4
-17 5 -7 -2 -9 -20 -6 -20 4 -26 2 -22 -8 3 -9 -2 -14 -14 -14 -11 0 -20 -7
-20 -15 0 -8 5 -15 10 -15 6 0 10 5 10 10 0 6 15 10 33 11 27 0 29 2 12 9
l-20 9 20 1 c11 2 24 2 29 1 5 -1 6 5 3 12 -3 8 0 20 6 26 9 9 8 14 -3 21 -12
8 -10 10 8 10 18 0 21 -3 14 -18 -5 -9 -12 -30 -16 -47 -6 -23 -5 -27 5 -18 8
8 18 9 36 0 17 -8 20 -13 11 -19 -18 -11 -30 -10 -23 2 3 6 -1 10 -9 10 -9 0
-16 -4 -16 -9 0 -5 -10 -7 -22 -5 -13 3 -7 -2 12 -11 19 -9 38 -21 42 -28 6
-9 12 -9 28 1 44 27 68 32 74 15 4 -10 2 -14 -8 -10 -8 3 -17 0 -19 -8 -7 -17
29 -27 43 -11 5 7 6 17 2 22 -4 4 2 2 12 -6 18 -14 19 -13 13 3 -4 11 -3 16 3
12 6 -3 10 -13 10 -21 0 -8 7 -14 16 -14 8 0 13 4 9 9 -3 5 0 13 6 17 8 5 9 3
4 -6 -6 -10 -2 -12 18 -8 14 3 25 2 24 -2 -1 -3 12 -19 28 -34 17 -15 23 -24
15 -20 -10 5 -12 4 -5 -4 6 -6 24 -12 40 -14 17 -2 28 -7 27 -12 -2 -5 1 -12
7 -16 18 -10 31 -68 18 -74 -7 -2 -7 -5 -2 -5 6 -1 25 13 43 29 36 33 47 37
39 17 -3 -9 4 -13 27 -12 17 0 36 -6 42 -14 6 -8 16 -11 23 -6 9 5 6 14 -11
33 -13 15 -16 21 -7 14 19 -14 30 -6 22 16 -4 14 -3 15 5 2 8 -10 7 -19 -1
-29 -10 -12 -8 -13 16 -9 15 3 27 1 27 -4 0 -5 10 -4 21 3 15 8 19 8 15 0 -4
-6 -2 -11 3 -11 6 0 11 -7 11 -15 0 -8 6 -15 13 -15 8 0 7 -4 -3 -10 -12 -8
-12 -10 5 -11 11 0 14 -3 8 -6 -10 -3 -9 -9 1 -26 8 -12 12 -30 11 -40 -2 -9
1 -15 6 -11 5 3 7 9 4 14 -3 5 5 16 17 24 15 11 24 12 29 5 4 -7 8 -5 12 5 7
19 -1 20 -39 6 -24 -9 -25 -9 -14 5 7 8 15 13 18 11 2 -3 12 3 21 12 9 10 13
13 9 8 -4 -5 0 -14 8 -20 21 -16 7 -49 -17 -43 -11 3 -21 2 -24 -3 -9 -15 90
-5 103 10 10 13 11 13 6 -2 -4 -13 -1 -15 15 -11 16 4 19 9 11 18 -12 14 6 25
27 18 10 -4 9 -8 -2 -20 -8 -8 -15 -22 -15 -31 0 -15 2 -15 11 -2 9 13 10 13
6 0 -2 -8 -12 -13 -23 -11 -18 3 -18 2 1 -19 17 -19 20 -20 23 -6 3 14 6 15
18 5 13 -11 11 -14 -11 -23 -25 -10 -25 -12 -10 -31 16 -20 16 -20 12 2 -4 20
-3 21 14 12 11 -5 17 -14 14 -19 -4 -6 1 -7 11 -3 13 5 15 3 9 -8 -6 -10 -5
-11 4 -3 6 6 9 19 5 28 -5 13 -9 14 -14 6 -5 -9 -9 -9 -14 -1 -4 6 -3 11 3 11
5 0 8 9 6 20 -2 11 0 20 5 20 4 0 6 8 3 19 -3 10 0 22 6 25 7 5 8 1 4 -10 -5
-13 -2 -15 18 -10 13 3 18 3 11 0 -6 -3 -10 -10 -7 -14 3 -5 -4 -15 -16 -23
-21 -15 -10 -35 13 -21 7 4 8 3 4 -5 -4 -6 -1 -17 6 -24 15 -16 41 -11 32 5
-5 7 -2 8 7 2 8 -5 17 -9 21 -9 3 0 10 -4 15 -9 5 -5 3 -6 -4 -2 -7 4 -13 2
-13 -4 0 -8 10 -9 29 -5 22 5 34 1 50 -16 11 -12 19 -25 17 -28 -2 -3 9 -6 25
-7 16 -1 26 3 22 8 -3 6 2 6 13 0 37 -18 58 6 30 34 -17 17 -30 19 -20 2 4 -6
3 -8 -4 -4 -5 3 -12 0 -15 -6 -3 -9 -9 -7 -19 6 -8 10 -20 16 -26 12 -7 -4
-12 -2 -12 5 0 6 8 9 20 6 14 -4 25 1 33 14 13 21 32 25 43 7 5 -7 2 -9 -9 -5
-8 3 -21 -1 -29 -10 -11 -14 -10 -15 9 -9 12 4 32 9 45 11 21 4 21 3 6 -9 -10
-7 -14 -16 -8 -22 15 -16 16 -66 1 -72 -10 -3 -12 0 -8 11 4 11 0 13 -14 10
-20 -6 -20 -30 0 -25 6 1 11 -3 11 -9 0 -5 4 -8 9 -4 5 3 12 1 16 -5 3 -5 10
-10 15 -10 12 0 22 33 11 39 -5 4 -1 17 10 31 17 21 19 22 10 3 -15 -30 -14
-33 12 -29 12 2 28 -1 35 -6 6 -6 12 -6 12 -1 0 5 10 9 23 10 22 2 22 2 2 -13
-11 -8 -20 -20 -21 -27 -3 -38 -4 -38 -33 -21 -19 11 -27 23 -23 32 3 10 1 13
-6 8 -15 -9 -8 -52 8 -48 7 2 17 -3 21 -10 7 -11 34 -3 68 19 2 1 -2 11 -10
20 -11 15 -11 16 1 6 15 -14 51 -18 49 -5 -4 23 2 42 11 37 8 -5 7 -12 -2 -23
-11 -13 -10 -15 5 -9 9 3 17 2 17 -4 0 -6 4 -7 10 -4 5 3 7 0 4 -8 -3 -9 -14
-13 -27 -10 -18 4 -19 3 -7 -6 13 -10 13 -11 0 -12 -8 -1 -27 0 -42 1 -14 1
-28 -2 -31 -7 -3 -4 12 -8 33 -8 23 -1 47 -8 59 -19 11 -10 25 -15 31 -11 9 6
9 10 -1 17 -11 8 -10 9 4 4 13 -4 17 0 16 17 0 12 -3 16 -6 10 -2 -7 -12 -13
-21 -13 -15 1 -15 2 2 15 22 17 36 11 36 -16 0 -10 5 -19 11 -19 5 0 7 -5 4
-10 -4 -6 -11 -7 -17 -4 -7 4 -8 2 -4 -5 4 -6 12 -9 17 -6 13 9 11 -2 -6 -35
-15 -30 -9 -40 12 -19 8 8 11 7 10 -2 -1 -31 4 -49 12 -49 5 0 8 13 6 30 -4
29 11 38 27 15 5 -6 12 -5 20 3 11 11 10 13 -2 10 -8 -2 -14 2 -13 9 1 6 -8
10 -21 9 -19 -2 -22 1 -20 21 1 13 -5 30 -13 39 -13 12 -13 18 -3 27 10 9 11
9 6 -1 -4 -7 -1 -15 8 -18 8 -3 13 -14 11 -24 -4 -22 38 -42 88 -42 22 0 34
-5 34 -14 0 -17 -14 -18 -20 -1 -3 6 -6 3 -6 -7 -1 -20 -1 -20 -17 0 -8 10
-13 14 -10 8 3 -7 -1 -14 -9 -18 -8 -3 -15 -12 -15 -21 0 -8 -5 -15 -11 -15
-5 0 -7 6 -3 13 4 6 3 8 -1 4 -12 -10 -15 -37 -5 -37 4 0 13 6 19 14 17 20 61
27 61 10 0 -19 13 -17 31 4 12 14 13 23 5 36 -8 14 -8 20 2 23 6 3 10 8 8 12
-3 4 7 7 22 8 15 0 19 -1 9 -4 -9 -2 -14 -9 -11 -15 4 -6 2 -8 -3 -5 -6 4 -14
0 -17 -9 -4 -11 -2 -15 8 -11 10 4 12 0 9 -14 -3 -11 0 -19 6 -19 7 0 9 5 6
10 -3 5 -1 10 5 10 7 0 9 8 5 20 -5 16 -2 20 14 20 12 0 21 -4 21 -10 0 -5 -6
-7 -12 -5 -8 3 -14 -4 -14 -20 -1 -15 3 -25 12 -25 14 0 16 -60 2 -70 -4 -3
-3 -12 2 -20 8 -12 10 -11 10 5 1 20 1 20 15 1 8 -11 18 -16 22 -12 4 4 2 10
-4 14 -8 5 -7 10 2 19 10 9 15 6 24 -13 7 -17 19 -24 38 -25 27 -1 26 -2 -12
-19 -21 -10 -44 -16 -49 -13 -5 3 -6 1 -2 -6 5 -7 17 -9 29 -5 18 5 20 4 10
-6 -9 -10 -9 -18 -2 -33 8 -14 8 -27 0 -46 -10 -23 -10 -24 3 -8 8 10 20 15
30 11 14 -5 15 -3 6 21 -6 15 -8 30 -5 35 3 4 -5 6 -17 3 -17 -3 -19 -2 -9 5
8 6 10 15 6 23 -6 9 -4 11 8 6 9 -3 19 -2 23 4 3 6 17 15 31 20 21 8 23 12 13
24 -10 12 -9 16 4 21 9 3 14 9 12 13 -2 3 11 6 29 7 25 1 30 -2 21 -11 -6 -7
-16 -10 -23 -8 -7 3 -11 -4 -10 -16 1 -11 5 -17 10 -12 10 10 57 2 57 -10 0
-5 -15 -9 -34 -9 -34 0 -57 -24 -33 -34 7 -2 2 -5 -11 -5 -13 -1 -33 -10 -44
-21 l-22 -20 20 -21 c18 -18 23 -19 35 -6 8 7 19 12 26 10 6 -2 17 5 23 16 6
12 15 21 21 21 6 0 7 -6 3 -12 -4 -7 2 -4 14 6 12 11 22 14 22 8 0 -6 -13 -20
-30 -32 -16 -12 -30 -25 -30 -30 0 -12 29 -20 35 -9 4 5 3 8 -2 7 -4 -2 -8 2
-8 7 0 6 9 9 20 7 16 -2 17 0 5 8 -11 7 -11 10 -2 10 7 0 15 -7 18 -15 4 -8
10 -15 15 -15 4 0 6 7 3 15 -4 8 -1 15 5 15 6 0 11 -4 11 -10 0 -5 10 -10 22
-10 21 0 21 0 2 15 -10 8 -26 15 -34 15 -10 0 -16 11 -16 31 -1 17 1 28 5 23
10 -15 44 -17 35 -3 -4 7 -3 10 4 5 5 -3 12 0 15 6 2 7 8 10 12 6 4 -4 -3 -16
-16 -27 -15 -12 -26 -15 -30 -9 -4 7 -9 6 -13 -1 -10 -15 23 -26 37 -12 6 6
16 11 22 11 5 0 2 -5 -8 -11 -21 -12 -14 -29 13 -29 12 0 17 -5 14 -17 -4 -12
-16 -19 -40 -20 -20 -1 -41 -7 -49 -13 -9 -8 -15 -8 -18 0 -3 6 -5 6 -3 -1 1
-7 12 -13 24 -14 11 -1 19 2 16 7 -7 11 47 -1 63 -15 7 -5 11 -12 9 -16 -3 -4
0 -13 5 -21 7 -12 8 -10 6 7 -2 11 -9 28 -16 37 -11 14 -11 16 3 16 9 0 19 7
22 15 5 11 11 12 25 4 11 -5 19 -6 19 -1 0 6 9 12 21 15 20 5 20 5 4 -13 -10
-11 -12 -20 -7 -24 6 -3 12 -1 14 6 2 6 15 13 29 15 13 2 29 10 35 18 10 13
12 12 17 -7 4 -12 9 -19 13 -15 4 4 15 0 25 -9 11 -10 26 -14 36 -10 16 5 15
4 -1 -9 -11 -8 -16 -15 -11 -15 27 0 -17 -19 -55 -24 -40 -5 -93 -36 -62 -36
7 0 12 5 12 10 0 11 33 14 43 4 12 -12 -5 -32 -24 -27 -11 3 -19 0 -19 -7 0
-7 6 -10 14 -7 18 7 36 -11 29 -29 -3 -8 0 -14 7 -14 6 0 8 5 5 10 -3 6 -1 10
4 10 6 0 11 -9 11 -19 0 -22 17 -37 28 -26 4 4 1 10 -5 12 -7 3 -13 11 -13 19
0 10 6 11 23 5 31 -12 51 2 54 36 2 26 1 27 -12 9 -8 -10 -21 -16 -29 -13 -10
4 -13 1 -9 -9 3 -7 1 -14 -5 -14 -8 0 -22 22 -22 34 0 1 12 3 28 4 15 1 32 9
38 17 6 8 19 15 29 15 10 0 15 3 12 7 -4 3 1 15 10 26 17 19 17 19 -4 13 -15
-5 -23 -3 -23 4 0 6 10 10 22 8 15 -2 22 -10 22 -30 1 -14 -2 -24 -6 -22 -4 3
-8 0 -8 -5 0 -6 -9 -11 -21 -11 -11 0 -17 -5 -14 -10 4 -6 12 -8 18 -4 7 3 3
-2 -8 -11 -20 -16 -20 -17 5 -13 20 2 25 -1 24 -19 0 -12 3 -20 8 -17 4 3 8
12 8 20 0 8 8 14 18 14 11 0 13 -3 5 -8 -18 -11 -9 -77 16 -107 14 -19 21 -23
21 -12 0 8 -5 17 -12 19 -8 3 -6 14 7 35 12 21 23 29 34 25 20 -7 46 -32 34
-32 -5 0 -9 -8 -9 -17 0 -10 -3 -30 -7 -45 -6 -22 -4 -26 7 -22 8 3 12 12 10
19 -7 17 8 26 26 14 8 -5 12 -9 8 -9 -4 0 -2 -14 4 -30 9 -28 36 -38 30 -11
-1 6 4 11 12 11 8 0 23 3 33 6 10 3 14 2 8 -3 -11 -9 -14 -58 -3 -68 3 -4 14
-3 23 3 16 8 16 9 1 15 -11 5 -15 3 -10 -5 4 -7 3 -8 -4 -4 -15 9 -15 11 5 27
9 8 14 10 11 4 -4 -6 9 -11 29 -12 20 -1 41 -7 46 -12 7 -7 4 -9 -11 -6 -14 2
-22 -1 -22 -11 0 -8 5 -14 10 -14 6 0 10 5 10 12 0 6 3 8 7 5 3 -4 14 0 23 8
16 15 18 14 24 -8 6 -24 36 -46 36 -27 0 6 7 10 16 10 8 0 13 -4 10 -9 -3 -4
46 -8 109 -8 62 1 112 5 109 9 -3 5 -9 6 -14 3 -5 -3 -12 0 -16 7 -4 7 -4 10
1 6 4 -4 14 -3 22 4 7 6 16 8 20 4 3 -3 1 -6 -6 -6 -9 0 -8 -4 3 -15 13 -13
327 -15 2710 -15 l2696 0 0 1050 0 1049 -29 16 c-17 8 -32 11 -36 6 -18 -30
-107 -52 -120 -31 -4 6 -26 8 -56 4 -37 -5 -54 -3 -67 8 -27 24 -109 51 -137
46 -34 -7 -48 12 -35 46 9 23 7 28 -15 38 -20 9 -33 7 -67 -10 -84 -41 -192
-37 -244 9 -11 11 -31 19 -43 19 -13 0 -38 15 -58 35 -35 35 -57 43 -68 25
-11 -18 -44 -10 -61 15 -9 14 -25 25 -35 25 -10 0 -30 5 -45 12 -22 10 -28 10
-38 -3 -30 -40 -62 -50 -155 -48 -62 2 -94 -1 -105 -10 -9 -7 -26 -11 -39 -7
-14 3 -35 -2 -55 -14 -43 -27 -64 -25 -93 6 -13 14 -40 34 -60 44 -34 18 -39
18 -88 3 -49 -16 -52 -16 -73 3 -30 25 -147 27 -175 2 -27 -24 -111 -30 -142
-10 -14 9 -30 22 -34 29 -7 11 -69 43 -83 43 -2 0 -4 -9 -4 -20 0 -16 7 -20
34 -20 19 0 38 -5 41 -10 4 -6 -10 -10 -35 -10 -41 0 -90 19 -123 48 -13 12
-20 13 -29 4 -18 -18 -49 -15 -113 10 -51 19 -59 20 -69 6 -6 -8 -21 -18 -34
-22 -26 -9 -27 -14 -8 -58 7 -18 18 -48 24 -66 9 -29 9 -33 -6 -30 -23 4 -42
46 -42 92 0 25 -8 48 -22 66 -13 15 -27 35 -33 44 -6 10 -28 20 -53 23 -35 5
-49 13 -74 44 -20 25 -40 39 -54 39 -13 0 -26 5 -29 10 -9 15 -25 12 -25 -4 0
-26 -24 -36 -60 -26 -40 11 -51 27 -43 58 5 22 4 23 -45 16 -56 -7 -63 -2 -72
60 -6 46 -25 58 -34 21 -4 -16 -13 -25 -26 -25 -21 0 -23 6 -20 57 2 45 -13
66 -57 82 -51 18 -117 83 -148 147 -30 60 -26 100 10 114 30 12 37 24 29 55
l-6 25 -30 -25 c-16 -14 -33 -25 -38 -25 -21 0 -40 14 -40 29 0 24 -67 16 -81
-10 -7 -14 -21 -19 -50 -19 -24 0 -42 -5 -45 -13 -5 -13 -74 -18 -74 -6 0 8
-45 28 -100 45 -53 16 -67 11 -16 -6 43 -14 37 -35 -7 -26 -16 3 -35 2 -41 -2
-20 -15 -91 -31 -112 -26 -12 3 -25 1 -28 -5 -10 -15 -42 -14 -58 3 -8 7 -25
17 -37 21 -13 4 -33 18 -45 32 -18 21 -32 25 -101 29 -90 6 -141 30 -152 74
-9 38 -23 50 -58 50 -19 0 -39 8 -50 20 -11 12 -29 20 -41 18 -11 -1 -28 3
-36 10 -12 10 -31 9 -94 -2 -111 -21 -220 -28 -284 -18 -48 7 -38 9 90 15 178
8 254 24 258 55 2 12 -2 22 -8 22 -6 0 -10 -8 -8 -17 2 -12 -5 -19 -21 -21
-14 -2 -21 0 -17 6 4 6 2 14 -4 17 -6 4 -10 14 -9 23 4 25 -10 61 -32 83 -10
10 -19 33 -19 49 0 34 -25 42 -34 12 -4 -10 -20 -31 -36 -47 l-30 -29 -43 41
c-23 23 -57 44 -74 48 -18 3 -35 11 -38 16 -10 14 -89 10 -111 -6 -30 -23 -44
-18 -61 23 -14 34 -14 41 3 90 16 49 16 54 1 70 -9 9 -17 11 -17 6 0 -6 -11
-28 -25 -48 -27 -39 -32 -84 -19 -145 5 -25 3 -37 -8 -45 -9 -6 -19 -26 -23
-44 -4 -18 -13 -36 -20 -38 -21 -8 -115 44 -124 69 -9 24 -94 107 -110 107 -9
0 -51 -52 -51 -63 0 -4 30 -12 85 -24 39 -8 33 -19 -10 -18 -25 0 -45 4 -45 9
0 17 -14 -4 -15 -23 -1 -15 11 -21 67 -31 38 -7 67 -14 64 -17 -2 -3 -26 0
-53 5 -26 6 -80 14 -120 17 -70 7 -73 7 -131 -29 -68 -41 -180 -89 -231 -99
-42 -9 -101 8 -162 45 l-47 28 -73 -26 c-186 -67 -207 -94 -74 -94 167 0 385
-34 385 -61 0 -6 4 -8 9 -4 10 6 145 -25 138 -31 -2 -2 -25 0 -50 5 -27 5 -47
5 -47 0 0 -5 7 -9 15 -9 8 0 15 -4 15 -10 0 -5 7 -10 16 -10 9 0 13 5 9 13 -4
6 0 4 9 -7 8 -10 19 -15 24 -12 6 3 12 -1 16 -9 6 -17 -3 -19 -37 -6 -70 27
-535 44 -611 23 -25 -7 -32 -18 -55 -89 -35 -104 -67 -157 -130 -216 -28 -27
-69 -75 -91 -108 -53 -78 -166 -171 -240 -199 -114 -43 -354 -41 -528 3 -108
28 -124 38 -54 32 27 -2 67 1 88 6 22 6 53 14 70 18 32 9 87 41 81 48 -3 2
-35 5 -73 6 -46 1 -68 6 -67 14 2 11 -47 23 -105 25 -21 1 -29 5 -25 14 3 8 1
14 -5 14 -5 0 -12 9 -15 20 -10 39 -84 53 -142 26 -55 -25 -72 -28 -79 -11 -3
9 -10 14 -15 10 -6 -3 -15 5 -22 17 -9 19 -9 21 2 10 17 -16 39 -15 39 2 0 23
-51 26 -73 5 -12 -11 -23 -16 -26 -12 -10 14 -41 14 -41 1 0 -16 40 -43 58
-40 6 2 12 -4 12 -13 0 -8 4 -15 9 -15 5 0 22 -5 38 -12 35 -14 50 -18 90 -23
34 -4 82 -33 83 -50 0 -5 -4 -16 -9 -24 -8 -12 -30 -4 -123 42 -62 31 -131 68
-153 82 -22 14 -51 29 -64 35 -13 6 -57 34 -98 62 -58 40 -95 77 -161 162 -47
61 -115 144 -150 185 -40 45 -78 104 -100 150 -19 42 -68 135 -108 206 -84
150 -109 219 -125 342 -15 120 -21 315 -9 333 7 11 10 7 10 -17 0 -18 5 -33
10 -33 6 0 10 -7 10 -15 0 -8 5 -15 10 -15 6 0 10 -7 10 -16 0 -14 -2 -15 -17
-3 -16 12 -16 11 0 -8 14 -16 15 -22 5 -26 -11 -4 -11 -6 0 -6 7 -1 10 -5 7
-11 -3 -5 6 -12 20 -16 14 -3 25 -9 25 -14 0 -4 18 10 41 31 37 34 40 40 34
76 -4 21 -14 44 -23 51 -9 7 -11 12 -4 12 7 0 12 4 12 10 0 5 -7 7 -15 4 -18
-7 -22 31 -5 41 6 4 10 14 8 23 -1 10 1 23 6 30 4 7 5 30 0 50 -4 20 -8 39 -8
42 -1 3 -4 10 -7 15 -3 6 -4 19 -3 30 1 11 3 41 5 68 1 26 5 47 9 47 3 0 6 9
6 19 0 16 -3 18 -16 8 -8 -7 -20 -19 -27 -27 -6 -8 -14 -12 -18 -8 -4 4 11 28
33 55 63 76 91 148 71 185 -6 12 -6 18 1 18 5 0 10 5 10 11 0 6 9 24 21 40 11
16 17 29 13 29 -5 0 -3 5 4 12 7 7 12 19 12 28 0 9 19 37 41 61 45 48 74 88
68 93 -11 9 -69 15 -64 6 3 -6 -1 -10 -9 -10 -9 0 -16 4 -16 9 0 10 30 25 43
22 5 -1 6 3 2 9 -10 16 -65 12 -71 -5 -4 -8 -12 -15 -20 -15 -7 0 -17 -12 -20
-27 -4 -16 -16 -36 -26 -45 -11 -9 -19 -18 -18 -20 1 -3 -4 -17 -44 -113 -32
-76 -51 -84 -30 -13 51 173 140 273 323 362 52 25 104 55 116 66 65 61 302
108 410 81 37 -9 55 -9 93 3 121 36 363 178 512 300 67 56 159 120 182 129 10
3 20 1 24 -5 4 -7 3 -8 -4 -4 -7 4 -12 2 -12 -3 0 -6 -5 -11 -11 -11 -6 0 -30
-19 -53 -42 -23 -24 -60 -56 -82 -73 -41 -31 -85 -74 -172 -167 -29 -31 -75
-77 -103 -101 l-51 -44 39 -42 39 -42 124 57 c69 31 136 64 150 74 41 29 118
62 132 57 8 -4 5 -8 -9 -12 -13 -4 -21 -11 -18 -15 3 -5 -48 -39 -112 -76
-169 -96 -165 -90 -68 -86 81 3 84 2 101 -22 12 -19 15 -37 10 -66 -3 -22 -4
-40 -1 -40 3 0 51 23 108 51 129 65 194 119 236 199 33 62 54 73 58 29 1 -13
0 -18 -3 -11 -8 17 -21 15 -28 -5 -19 -58 -103 -156 -174 -205 -23 -16 -70
-43 -105 -60 -34 -17 -70 -37 -79 -46 -22 -18 -23 -48 -4 -55 16 -6 76 19 87
36 4 5 69 38 145 72 142 64 154 65 154 18 0 -19 -16 -30 -92 -67 -51 -24 -125
-54 -164 -67 -71 -22 -72 -23 -62 -49 l9 -28 147 0 c158 -1 165 0 226 60 17
15 33 28 38 28 19 0 6 -30 -23 -55 -17 -14 -29 -28 -26 -31 8 -8 299 -35 314
-29 8 2 11 1 8 -5 -3 -5 13 -9 37 -8 24 0 63 -5 88 -12 25 -7 59 -12 75 -11
29 1 29 0 10 -15 -20 -16 -20 -16 3 -9 13 4 29 2 38 -6 8 -6 17 -10 19 -7 3 3
35 -1 72 -8 l67 -12 45 43 c46 45 100 65 171 65 30 0 41 14 18 23 -19 7 -189
-9 -218 -21 -14 -5 -52 -7 -85 -4 l-60 6 95 13 c52 7 163 15 245 17 83 2 135
2 118 -1 -35 -5 -43 -17 -17 -27 27 -10 54 -7 60 8 3 8 18 18 34 21 16 3 34
12 40 20 6 8 19 11 27 8 9 -4 21 0 27 9 6 8 32 23 58 33 25 11 44 23 41 28 -3
5 3 4 14 -2 16 -8 44 -1 138 35 65 24 123 43 128 41 6 -2 -12 -11 -39 -21
-169 -60 -181 -67 -147 -80 11 -5 23 0 33 14 l16 21 25 -23 c14 -13 34 -24 45
-25 10 -1 33 -5 49 -8 17 -3 40 -8 53 -11 13 -3 22 -12 22 -23 0 -10 11 -23
25 -29 23 -11 26 -9 45 29 12 22 27 42 35 45 17 7 66 -46 60 -63 -2 -7 -1 -13
4 -13 4 0 20 -11 35 -25 22 -21 25 -28 16 -45 -7 -14 -7 -20 0 -20 6 0 8 -10
4 -25 -4 -18 -2 -25 9 -25 8 0 17 -9 20 -20 4 -15 0 -20 -14 -20 -21 0 -26
-16 -8 -22 7 -2 -1 -17 -18 -34 -16 -16 -32 -35 -34 -42 -3 -10 -11 -10 -37
-1 -17 6 -32 15 -32 20 0 5 -11 9 -24 9 -19 0 -23 -4 -19 -19 7 -26 72 -51
133 -51 41 0 55 5 83 30 44 38 72 40 63 5 -3 -14 -9 -36 -12 -49 -5 -21 -3
-23 19 -19 14 3 28 0 31 -6 11 -17 79 -13 117 6 l34 17 -47 13 c-25 8 -49 20
-52 29 -3 8 0 35 7 60 l12 46 47 -4 c38 -4 51 -1 64 14 21 23 18 26 -37 38
l-44 9 47 -2 c27 0 53 4 59 10 6 6 17 9 24 7 7 -3 16 -1 20 5 4 7 0 8 -10 5
-13 -5 -15 0 -9 37 3 24 14 55 22 69 15 23 17 24 20 5 2 -10 -1 -21 -7 -23 -6
-2 -11 -11 -11 -20 0 -12 3 -13 12 -4 7 7 19 12 27 12 8 0 23 7 33 17 17 15
21 15 56 -2 20 -10 57 -27 82 -39 25 -11 60 -31 78 -44 17 -13 32 -18 32 -12
0 7 21 10 58 8 45 -2 56 -6 54 -19 -1 -8 12 -28 28 -44 29 -28 32 -29 73 -16
23 7 54 15 70 18 15 3 27 10 27 15 0 5 4 6 10 3 5 -3 22 2 37 11 l28 16 -27
-22 c-33 -25 -36 -40 -9 -40 10 0 22 -7 25 -16 3 -8 10 -13 16 -9 5 3 18 0 29
-7 18 -11 23 -10 35 7 15 19 17 19 56 -22 35 -37 45 -42 71 -36 29 6 104 -12
123 -29 6 -4 18 -8 28 -8 21 0 43 -37 39 -68 -2 -21 0 -22 18 -12 12 6 21 15
21 21 0 6 5 7 11 3 6 -4 8 -20 4 -40 -7 -41 -1 -42 29 -7 23 26 46 25 46 -3 0
-8 5 -14 10 -14 6 0 10 -7 10 -15 0 -8 8 -15 19 -15 22 0 36 -16 45 -52 6 -25
3 -27 -50 -43 -31 -9 -68 -13 -84 -10 -22 5 -28 2 -33 -14 -3 -15 -13 -21 -32
-21 -15 0 -24 4 -20 10 3 6 -5 10 -19 10 -14 0 -33 10 -44 25 -11 14 -29 25
-40 25 -11 0 -33 7 -48 15 -40 21 -123 17 -137 -7 -15 -24 -40 -23 -108 5 -40
16 -68 37 -95 69 -22 26 -43 45 -49 44 -5 -2 -16 6 -23 18 -12 20 -12 20 -9
-4 1 -14 10 -39 19 -57 19 -37 9 -53 -34 -53 -15 0 -28 -4 -28 -10 0 -5 -13
-10 -29 -10 -26 0 -30 -4 -33 -32 -3 -30 -4 -31 -20 -15 -15 16 -18 16 -47 0
-29 -17 -30 -17 -54 5 -13 12 -28 22 -35 22 -21 0 -103 62 -114 86 -9 20 -19
24 -52 24 -23 -1 -52 -7 -65 -14 l-24 -13 32 -11 c33 -12 41 -29 17 -38 -8 -3
-19 -19 -25 -36 -10 -29 -13 -30 -50 -24 -29 4 -44 1 -61 -12 l-23 -18 38 -22
c31 -19 35 -25 25 -37 -7 -8 -21 -15 -31 -15 -22 0 -33 -16 -18 -25 6 -4 22
-1 36 6 24 13 27 11 59 -26 25 -30 32 -46 28 -65 -6 -23 -3 -22 31 13 47 48
73 48 99 -4 7 -14 23 -26 40 -29 30 -5 66 -56 66 -93 0 -26 27 -32 63 -12 18
9 47 15 67 13 33 -3 37 -8 75 -85 22 -45 45 -87 51 -93 16 -16 100 32 128 72
19 28 28 33 66 35 24 1 57 -5 72 -13 26 -14 28 -13 43 16 24 46 59 36 67 -20
3 -22 8 -25 46 -27 35 -1 49 -9 80 -41 40 -42 80 -61 91 -44 12 20 35 18 36
-3 0 -19 16 -22 53 -10 19 7 14 35 -6 35 -26 0 -79 50 -96 92 -9 20 -21 38
-28 40 -7 3 -13 21 -14 42 -1 28 5 42 24 57 14 10 33 19 44 19 15 0 18 5 12
23 -4 12 -10 24 -14 27 -4 3 -7 16 -6 30 1 14 -4 33 -12 43 -25 29 4 19 36
-13 17 -16 38 -30 46 -30 9 0 16 -4 16 -9 0 -5 9 -11 19 -14 17 -4 18 -1 10
25 -4 17 -7 33 -6 37 3 10 -37 51 -50 51 -29 0 -9 21 64 64 43 25 83 46 89 46
31 0 36 -322 5 -353 -17 -17 -1 -37 24 -31 13 3 26 1 30 -5 10 -18 53 -2 122
45 73 51 88 54 97 19 3 -13 15 -32 25 -42 11 -10 24 -37 30 -60 7 -27 19 -44
31 -48 11 -4 20 -10 20 -15 0 -5 -6 -7 -12 -5 -7 3 -26 1 -43 -4 -16 -5 -24
-10 -17 -10 7 -1 12 -16 12 -38 0 -60 9 -81 31 -76 22 6 33 35 24 63 -6 20 5
25 47 22 10 -1 22 7 28 17 8 16 7 18 -9 14 -11 -3 -28 0 -38 6 -17 10 -16 10
5 11 27 0 28 8 5 26 -16 12 -14 13 18 14 45 0 79 30 79 70 0 33 47 93 91 116
36 18 49 18 49 -2 0 -14 7 -16 45 -11 24 4 46 3 49 -2 3 -5 31 -11 61 -13 65
-5 88 -24 87 -68 -1 -30 0 -31 17 -16 21 19 51 21 51 3 0 -7 18 -32 40 -56 32
-37 37 -47 29 -64 -9 -15 -7 -23 6 -36 15 -15 17 -15 29 2 14 18 56 24 56 7 0
-5 -5 -10 -11 -10 -18 0 -5 -45 14 -48 15 -3 18 0 12 18 -6 20 -4 21 32 15 21
-4 50 -15 65 -26 15 -10 44 -19 64 -19 l37 0 -7 -52 c-4 -36 -14 -59 -27 -70
-17 -14 -18 -18 -5 -18 17 0 53 35 61 61 11 34 38 32 70 -3 17 -19 38 -37 48
-41 9 -3 17 -16 17 -28 0 -15 5 -19 15 -15 9 3 23 -3 33 -16 22 -28 53 -58 81
-81 12 -10 19 -22 15 -28 -3 -6 1 -18 10 -28 9 -10 14 -25 11 -33 -4 -9 10
-31 34 -57 23 -24 44 -55 47 -69 4 -15 11 -32 16 -39 24 -31 44 -82 47 -123 1
-25 7 -49 12 -55 5 -5 9 -45 8 -90 0 -71 -4 -103 -26 -208 -3 -16 0 -47 8 -69
11 -35 15 -39 37 -33 17 4 31 0 47 -15 19 -18 27 -20 45 -10 17 9 29 9 52 -1
17 -7 75 -13 129 -13 l98 -1 64 -60 c35 -33 72 -78 81 -100 32 -73 37 -80 79
-113 37 -30 45 -33 87 -27 37 5 54 2 83 -15 34 -20 38 -21 68 -6 35 18 51 13
47 -13 -4 -24 20 -51 46 -51 40 0 64 -12 74 -36 15 -31 53 -40 86 -19 15 10
33 14 46 10 11 -3 29 -3 40 0 20 6 20 15 20 2696 l0 2689 -5120 0 -5120 0 0
-2615z m3580 815 c12 -8 11 -10 -7 -10 -13 0 -23 5 -23 10 0 13 11 13 30 0z
m77 4 c-3 -3 -12 -4 -19 -1 -8 3 -5 6 6 6 11 1 17 -2 13 -5z m131 -11 c-10 -2
-26 -2 -35 0 -10 3 -2 5 17 5 19 0 27 -2 18 -5z m127 -6 c54 -7 177 -38 171
-44 -3 -3 -34 2 -70 11 -37 10 -88 20 -116 23 -27 3 -47 10 -44 15 3 4 9 6 13
4 4 -3 25 -7 46 -9z m212 -53 c-3 -3 -12 -4 -19 -1 -8 3 -5 6 6 6 11 1 17 -2
13 -5z m138 -52 c-3 -3 -11 0 -18 7 -9 10 -8 11 6 5 10 -3 15 -9 12 -12z m322
-138 c-3 -3 -12 -4 -19 -1 -8 3 -5 6 6 6 11 1 17 -2 13 -5z m-672 -218 c12
-12 -4 -23 -113 -77 -70 -34 -157 -84 -195 -111 l-67 -48 -10 25 c-6 15 -10
29 -9 33 0 6 367 192 377 192 2 0 10 -6 17 -14z m1415 -190 c0 -3 -4 -8 -10
-11 -5 -3 -10 -1 -10 4 0 6 5 11 10 11 6 0 10 -2 10 -4z m-1586 -34 c-5 -4
-20 -24 -33 -44 -12 -21 -26 -38 -31 -38 -5 0 -12 -11 -17 -24 -6 -20 -10 -22
-20 -11 -10 11 -4 20 27 49 22 20 40 39 40 43 0 11 33 43 39 38 3 -4 1 -9 -5
-13z m326 -213 c28 -6 21 -7 -35 -6 -39 1 -76 -3 -84 -7 -9 -6 -12 -5 -7 2 4
7 -6 15 -26 21 -41 12 97 3 152 -10z m87 -5 c-3 -3 -12 -4 -19 -1 -8 3 -5 6 6
6 11 1 17 -2 13 -5z m40 -40 c-3 -3 -12 -4 -19 -1 -8 3 -5 6 6 6 11 1 17 -2
13 -5z m2570 0 c-3 -3 -12 -4 -19 -1 -8 3 -5 6 6 6 11 1 17 -2 13 -5z m-82
-34 c3 -5 0 -7 -8 -4 -8 3 -20 -2 -27 -10 -7 -9 -17 -13 -22 -9 -6 3 0 12 13
19 29 16 36 17 44 4z m-75 -30 c0 -5 -2 -10 -4 -10 -3 0 -8 5 -11 10 -3 6 -1
10 4 10 6 0 11 -4 11 -10z m-5099 -236 c-6 -28 -9 -32 -10 -14 -1 30 11 79 16
64 2 -6 -1 -28 -6 -50z m2 -156 c-21 -43 -27 -49 -18 -18 7 23 23 50 30 50 2
0 -4 -15 -12 -32z m3472 -1068 c3 -6 -1 -7 -9 -4 -18 7 -21 14 -7 14 6 0 13
-4 16 -10z m192 -106 c-3 -3 -12 -4 -19 -1 -8 3 -5 6 6 6 11 1 17 -2 13 -5z
m-697 -134 c13 -8 13 -10 -2 -10 -9 0 -20 5 -23 10 -8 13 5 13 25 0z m46 -58
c-6 -6 -56 10 -56 18 0 5 13 3 30 -3 16 -6 28 -13 26 -15z m569 -171 c50 -16
77 -28 60 -26 -16 1 -43 7 -58 14 -16 6 -36 11 -46 11 -15 0 -65 29 -51 30 3
0 46 -13 95 -29z m122 -37 c-3 -3 -12 -4 -19 -1 -8 3 -5 6 6 6 11 1 17 -2 13
-5z m58 -14 c18 -8 17 -9 -7 -9 -15 -1 -30 4 -33 9 -7 12 12 12 40 0z m-2651
-225 c-4 -8 -12 -15 -18 -15 -7 0 -13 7 -13 15 0 8 8 15 18 15 12 0 16 -5 13
-15z m-2514 -265 c0 -5 -5 -10 -11 -10 -5 0 -7 5 -4 10 3 6 8 10 11 10 2 0 4
-4 4 -10z m55 -10 c3 -6 -1 -7 -9 -4 -18 7 -21 14 -7 14 6 0 13 -4 16 -10z
m-65 -14 c0 -2 -9 -6 -20 -9 -11 -3 -18 -1 -14 4 5 9 34 13 34 5z m5 -26 c3
-6 -1 -7 -9 -4 -18 7 -21 14 -7 14 6 0 13 -4 16 -10z m36 -23 c-10 -9 -11 -8
-5 6 3 10 9 15 12 12 3 -3 0 -11 -7 -18z m44 3 c-3 -5 -12 -10 -18 -10 -7 0
-6 4 3 10 19 12 23 12 15 0z m29 -35 c-7 -18 7 -20 26 -2 12 10 12 9 1 -5 -16
-22 -37 -23 -44 -4 -5 12 -1 18 20 25 1 1 0 -6 -3 -14z m-34 -4 c0 -5 -11 -8
-24 -7 -13 0 -22 4 -19 9 6 10 43 9 43 -2z m101 -51 c6 0 7 -4 4 -10 -13 -21
-25 -9 -24 23 1 23 3 26 6 10 2 -13 9 -23 14 -23z m-41 4 c0 -2 -7 -4 -15 -4
-8 0 -15 4 -15 10 0 5 7 7 15 4 8 -4 15 -8 15 -10z m5 -24 c-3 -5 6 -12 20
-16 26 -6 26 -7 5 -21 -11 -8 -20 -21 -20 -29 0 -8 -5 -14 -11 -14 -5 0 -7 5
-4 10 3 6 -3 10 -14 10 -12 0 -21 5 -21 11 0 7 10 9 25 7 31 -6 40 5 20 22
-13 11 -12 30 1 30 3 0 2 -4 -1 -10z m70 -10 c3 -6 -1 -7 -9 -4 -18 7 -21 14
-7 14 6 0 13 -4 16 -10z m202 -36 c-3 -3 -12 -4 -19 -1 -8 3 -5 6 6 6 11 1 17
-2 13 -5z m-20 -51 c-9 -2 -14 -9 -11 -15 4 -7 2 -8 -5 -4 -15 10 -4 26 17 25
15 -1 15 -2 -1 -6z m203 -47 c0 -2 -7 -7 -16 -10 -8 -3 -12 -2 -9 4 6 10 25
14 25 6z m-188 -18 c-9 -9 -15 -9 -24 0 -9 9 -7 12 12 12 19 0 21 -3 12 -12z
m15 -24 c-3 -3 -12 -4 -19 -1 -8 3 -5 6 6 6 11 1 17 -2 13 -5z m108 -33 c-3
-6 1 -14 10 -18 13 -8 12 -11 -5 -26 -21 -17 -28 -9 -9 10 8 8 8 13 0 17 -14
9 -14 26 0 26 5 0 8 -4 4 -9z m59 -53 c-5 -8 -2 -9 9 -5 20 8 22 -4 5 -22 -10
-11 -10 -13 0 -7 6 4 12 3 12 -2 0 -14 -43 -23 -55 -11 -7 7 -5 8 6 4 12 -5
16 -1 15 17 -2 24 2 38 10 38 3 0 2 -5 -2 -12z m-24 -18 c0 -5 -10 -10 -22
-10 -19 0 -20 2 -8 10 19 13 30 13 30 0z m125 -28 c-3 -3 -11 0 -18 7 -9 10
-8 11 6 5 10 -3 15 -9 12 -12z m43 -17 c-3 -3 -16 -8 -28 -10 -13 -3 -27 -10
-31 -17 -6 -10 -11 -10 -20 -1 -10 10 -9 13 2 17 8 2 21 7 29 9 21 7 55 8 48
2z m9 -30 c0 -18 -23 -20 -33 -3 -4 6 -3 8 4 4 6 -3 13 -2 17 4 9 14 12 13 12
-5z m110 -57 c-3 -8 -6 -5 -6 6 -1 11 2 17 5 13 3 -3 4 -12 1 -19z m63 18 c0
-2 -7 -7 -16 -10 -8 -3 -12 -2 -9 4 6 10 25 14 25 6z m-270 -32 c0 -8 -5 -12
-10 -9 -6 4 -8 11 -5 16 9 14 15 11 15 -7z m200 -15 c0 -17 28 -40 35 -29 4 6
11 8 16 5 12 -8 11 -35 -2 -35 -5 0 -7 5 -3 12 4 7 3 8 -4 4 -6 -4 -9 -13 -5
-21 3 -8 0 -15 -7 -15 -6 0 -8 5 -5 10 4 6 -8 24 -24 41 -17 17 -29 35 -25 40
6 11 24 2 24 -12z m160 -89 c0 -5 -5 -10 -11 -10 -5 0 -7 5 -4 10 3 6 8 10 11
10 2 0 4 -4 4 -10z m110 6 c0 -2 -8 -10 -17 -17 -16 -13 -17 -12 -4 4 13 16
21 21 21 13z m50 -6 c8 -5 11 -10 5 -10 -5 0 -17 5 -25 10 -8 5 -10 10 -5 10
6 0 17 -5 25 -10z m-125 -10 c3 -5 1 -10 -4 -10 -6 0 -11 5 -11 10 0 6 2 10 4
10 3 0 8 -4 11 -10z m118 -37 c-3 -7 -9 -10 -14 -7 -14 8 -11 21 5 21 8 0 12
-6 9 -14z m61 9 c2 -4 -4 -8 -14 -8 -10 0 -16 4 -14 8 3 4 9 8 14 8 5 0 11 -4
14 -8z m9 -44 c-9 -10 -21 -18 -27 -17 -6 0 -6 3 2 6 6 2 12 9 12 15 0 6 -7 7
-16 4 -8 -3 -13 -2 -10 3 3 5 17 8 30 7 23 -1 23 -2 9 -18z m47 2 c-8 -5 -19
-10 -25 -10 -5 0 -3 5 5 10 8 5 20 10 25 10 6 0 3 -5 -5 -10z m57 -15 c0 -8
-4 -12 -9 -9 -5 3 -6 10 -3 15 9 13 12 11 12 -6z m-254 -9 c5 -12 -2 -14 -31
-7 -2 1 0 6 3 11 9 14 22 12 28 -4z m94 -10 c-8 -8 -17 -12 -21 -9 -3 3 2 12
12 19 22 16 29 9 9 -10z m27 -18 c-3 -4 -9 -8 -15 -8 -5 0 -9 4 -9 8 0 5 7 9
15 9 8 0 12 -4 9 -9z m331 -58 c3 -5 1 -10 -4 -10 -6 0 -11 5 -11 10 0 6 2 10
4 10 3 0 8 -4 11 -10z m55 -75 c0 -8 -4 -15 -10 -15 -5 0 -10 7 -10 15 0 8 5
15 10 15 6 0 10 -7 10 -15z m18 -33 c-10 -2 -18 -9 -18 -15 0 -7 -9 -18 -20
-25 -29 -18 -25 4 6 33 15 14 32 21 38 18 7 -5 5 -9 -6 -11z m296 3 c-4 -8 -8
-15 -10 -15 -2 0 -4 7 -4 15 0 8 4 15 10 15 5 0 7 -7 4 -15z m-220 -14 c6 -10
-24 -25 -32 -16 -3 3 0 5 7 5 7 0 9 5 6 10 -3 6 -2 10 4 10 5 0 12 -4 15 -9z
m161 -71 c17 -19 17 -19 -8 -7 -14 6 -23 15 -21 19 7 11 9 10 29 -12z m39 -6
c6 -10 15 -22 20 -25 4 -4 3 -9 -2 -13 -6 -4 -16 3 -22 14 -6 11 -7 20 -3 20
4 0 -1 8 -12 16 -11 9 -14 14 -6 12 8 -2 19 -13 25 -24z m241 -4 c-3 -5 -12
-10 -18 -10 -7 0 -6 4 3 10 19 12 23 12 15 0z m-145 -50 c0 -5 -2 -10 -4 -10
-3 0 -8 5 -11 10 -3 6 -1 10 4 10 6 0 11 -4 11 -10z m140 0 c0 -5 -5 -10 -11
-10 -5 0 -7 5 -4 10 3 6 8 10 11 10 2 0 4 -4 4 -10z m-170 -20 c0 -5 -8 -7
-17 -4 -15 5 -15 4 -4 -4 10 -7 21 -7 35 0 16 8 13 2 -8 -21 -17 -17 -32 -31
-35 -31 -2 0 -2 3 2 6 3 4 0 19 -9 35 -14 28 -14 29 11 29 14 0 25 -4 25 -10z
m84 -7 c-10 -7 -14 -13 -8 -13 5 0 2 -4 -6 -10 -9 -6 -17 -5 -22 3 -12 19 -9
27 9 20 9 -4 14 -2 10 3 -3 5 3 10 14 10 19 0 19 -1 3 -13z m126 -1 c0 -13
-12 -22 -22 -16 -10 6 -1 24 13 24 5 0 9 -4 9 -8z m35 -20 c-3 -3 -11 0 -18 7
-9 10 -8 11 6 5 10 -3 15 -9 12 -12z m141 -94 c5 -7 3 -8 -6 -3 -10 6 -12 4
-6 -11 5 -14 4 -16 -5 -7 -6 6 -8 16 -5 22 9 14 13 14 22 -1z m107 -18 c3 -12
0 -20 -8 -20 -8 0 -11 8 -8 20 3 11 7 20 8 20 1 0 5 -9 8 -20z m47 10 c0 -5
-5 -10 -11 -10 -5 0 -7 5 -4 10 3 6 8 10 11 10 2 0 4 -4 4 -10z m-40 -56 c0
-2 -7 -4 -15 -4 -8 0 -15 4 -15 10 0 5 7 7 15 4 8 -4 15 -8 15 -10z m168 -6
c-2 -7 2 -12 9 -11 7 2 10 -4 6 -13 -5 -14 -7 -14 -21 -1 -8 8 -11 20 -8 26
10 15 17 14 14 -1z m-88 -28 c-13 -8 -13 -10 -1 -10 8 0 12 -3 8 -6 -3 -3 -11
-3 -17 1 -8 5 -8 11 1 21 6 8 14 12 18 9 3 -3 -1 -10 -9 -15z m60 -6 c3 -13
12 -20 23 -18 11 1 17 -4 17 -17 0 -19 -2 -19 -39 3 -34 19 -37 24 -23 32 14
8 14 10 -3 18 -20 8 -20 8 0 5 10 -1 22 -12 25 -23z m254 -10 c3 -8 2 -12 -4
-9 -6 3 -10 10 -10 16 0 14 7 11 14 -7z m-49 -65 c-2 -17 -6 -33 -9 -36 -3 -3
-3 8 -2 23 5 43 6 44 11 44 2 0 2 -14 0 -31z m264 -48 c7 -5 9 -11 5 -14 -5
-3 -15 1 -22 9 -14 16 -5 18 17 5z m103 -59 c-4 -11 -8 -9 -15 9 -8 22 -10 23
-16 5 -6 -15 -10 -16 -16 -7 -11 19 14 32 36 18 9 -6 14 -17 11 -25z m72 26
c-3 -4 -11 -5 -19 -1 -21 7 -19 12 4 10 11 0 18 -5 15 -9z m-19 -38 c3 -6 -1
-7 -10 -4 -8 4 -23 0 -33 -7 -15 -13 -16 -12 -3 4 15 19 36 22 46 7z m-85 -40
c8 -15 8 -20 -3 -20 -7 0 -13 9 -13 20 0 11 1 20 3 20 1 0 7 -9 13 -20z m147
-3 c7 0 10 -4 7 -9 -3 -4 -15 -3 -27 3 -30 16 -37 24 -12 14 11 -4 25 -8 32
-8z m-86 -15 c-7 -2 -18 1 -23 6 -8 8 -4 9 13 5 13 -4 18 -8 10 -11z m270 -29
c2 1 3 0 1 -3 -2 -3 -14 -5 -27 -5 -14 -1 -21 4 -18 12 4 9 10 10 23 3 9 -5
19 -8 21 -7z m-78 -65 c-4 -7 20 -12 40 -9 5 1 5 -4 1 -11 -14 -22 -13 -40 2
-34 16 6 18 -2 5 -23 -11 -17 -31 -6 -31 17 0 15 -2 15 -10 2 -8 -13 -10 -13
-10 2 0 9 -7 24 -16 32 -8 9 -12 16 -7 17 4 0 -1 4 -12 9 -16 7 -14 8 12 7 17
-1 29 -5 26 -9z m-41 -60 c-7 -7 -12 -8 -12 -2 0 14 12 26 19 19 2 -3 -1 -11
-7 -17z m118 -24 c0 -8 -4 -12 -10 -9 -5 3 -10 10 -10 16 0 5 5 9 10 9 6 0 10
-7 10 -16z m147 1 c0 -8 -4 -15 -8 -15 -4 0 -9 7 -13 15 -3 9 0 15 8 15 7 0
13 -7 13 -15z m26 -10 c-7 -21 -13 -19 -13 6 0 11 4 18 10 14 5 -3 7 -12 3
-20z m-89 -53 c-5 -13 -4 -14 4 -3 7 9 12 10 16 2 6 -10 -6 -15 -26 -12 -5 0
-8 -8 -8 -20 0 -11 -4 -18 -10 -14 -5 3 -18 0 -29 -7 -16 -10 -23 -10 -33 0
-17 17 -1 27 19 11 16 -13 17 -12 5 3 -9 11 -10 18 -2 23 5 3 10 -2 10 -11 0
-16 2 -15 20 4 11 12 20 28 20 37 0 9 4 14 10 10 5 -3 7 -13 4 -23z m194 -32
c-1 -17 -4 -28 -7 -24 -8 8 -8 63 1 58 4 -2 6 -18 6 -34z m52 -21 c0 -10 -27
-19 -34 -12 -12 12 -5 22 14 20 11 -1 20 -4 20 -8z m65 1 c-3 -5 -12 -10 -18
-10 -7 0 -6 4 3 10 19 12 23 12 15 0z m117 -25 c-3 -5 -7 -4 -9 2 -3 7 -12 9
-21 6 -14 -6 -15 -5 -2 9 10 11 17 12 26 4 7 -6 9 -15 6 -21z m158 -23 c-8 -3
-19 -11 -23 -19 -5 -7 -13 -11 -18 -7 -5 3 1 14 13 24 13 10 27 15 32 12 6 -3
3 -8 -4 -10z m-443 2 c-3 -3 -12 -4 -19 -1 -8 3 -5 6 6 6 11 1 17 -2 13 -5z
m308 -34 c-3 -5 -1 -10 5 -10 6 0 8 -5 4 -11 -4 -8 -9 -7 -15 2 -12 19 -11 29
2 29 5 0 7 -4 4 -10z m218 -23 c7 3 9 2 4 -2 -12 -13 -47 -16 -47 -4 0 5 5 7
10 4 6 -3 10 0 11 7 0 10 2 10 6 0 2 -6 10 -9 16 -5z m-258 -16 c3 -5 0 -13
-6 -17 -6 -3 -15 0 -20 7 -5 8 -9 11 -10 7 -1 -5 -3 -12 -4 -18 -1 -5 -3 -14
-4 -20 0 -5 -8 -10 -16 -10 -13 0 -14 4 -5 20 6 11 8 20 5 20 -4 0 -3 5 0 10
8 13 52 13 60 1z m284 -22 c-15 -9 -32 -2 -24 11 3 5 13 6 21 3 12 -4 13 -8 3
-14z m-69 -10 c0 -4 -7 -6 -15 -3 -8 4 -15 10 -15 15 0 4 7 6 15 3 8 -4 15
-10 15 -15z m30 11 c0 -5 -5 -10 -11 -10 -5 0 -7 5 -4 10 3 6 8 10 11 10 2 0
4 -4 4 -10z m-36 -46 c3 -8 2 -12 -4 -9 -6 3 -10 10 -10 16 0 14 7 11 14 -7z
m-54 -9 c-7 -8 -10 -21 -7 -30 4 -8 2 -17 -3 -20 -14 -9 -12 39 2 53 17 17 23
15 8 -3z m120 -29 c14 -2 28 -5 33 -5 4 -1 7 -5 7 -10 0 -11 -14 -9 -52 7 -16
6 -28 17 -28 24 0 10 2 10 8 1 4 -7 19 -15 32 -17z m147 -10 c0 -8 -8 -11 -21
-8 -19 5 -19 6 0 13 10 4 19 8 20 8 0 1 1 -5 1 -13z m-162 -36 c3 -5 1 -10 -4
-10 -6 0 -11 5 -11 10 0 6 2 10 4 10 3 0 8 -4 11 -10z m95 -6 c0 5 9 1 21 -10
17 -15 22 -16 29 -4 5 8 12 11 16 7 4 -3 1 -13 -6 -22 -19 -23 -3 -18 20 7 11
12 20 18 20 14 0 -4 -12 -18 -26 -31 -25 -23 -27 -24 -43 -7 -9 10 -13 13 -9
7 4 -7 5 -15 1 -18 -3 -4 -1 -7 5 -7 7 0 12 -7 12 -16 0 -14 -3 -14 -15 -4 -8
7 -14 18 -14 24 3 16 -12 47 -20 42 -4 -3 -8 5 -8 17 -2 17 0 19 7 7 5 -8 10
-11 10 -6z m140 -4 c0 -5 -2 -10 -4 -10 -3 0 -8 5 -11 10 -3 6 -1 10 4 10 6 0
11 -4 11 -10z m-203 -29 c-3 -14 -1 -18 9 -14 8 3 12 9 9 13 -3 5 0 12 6 16 8
4 9 3 5 -4 -4 -7 0 -12 11 -13 11 0 5 -6 -16 -15 -36 -16 -55 -6 -44 23 8 20
26 15 20 -6z m369 -8 c-10 -10 -19 5 -10 18 6 11 8 11 12 0 2 -7 1 -15 -2 -18z
m-96 -5 c0 -6 -7 -7 -16 -4 -9 3 -21 6 -27 6 -7 0 -7 4 2 9 16 10 41 4 41 -11z
m-76 -9 c-6 -11 -24 -2 -24 11 0 5 7 7 15 4 8 -4 12 -10 9 -15z m273 -11 c-3
-8 -6 -5 -6 6 -1 11 2 17 5 13 3 -3 4 -12 1 -19z m-328 -7 c9 -6 10 -11 2 -15
-13 -8 -31 1 -31 15 0 11 11 11 29 0z m114 -15 c-10 -13 -24 -21 -31 -19 -8 3
-10 0 -6 -10 3 -9 13 -14 22 -10 14 4 14 3 3 -5 -20 -15 -38 -4 -37 21 1 15
11 26 31 33 17 7 31 12 33 13 2 0 -5 -10 -15 -23z m-68 4 c-3 -5 -11 -10 -16
-10 -6 0 -7 5 -4 10 3 6 11 10 16 10 6 0 7 -4 4 -10z m135 -4 c0 -2 -7 -6 -15
-10 -8 -3 -15 -1 -15 4 0 6 7 10 15 10 8 0 15 -2 15 -4z m105 -6 c3 -5 1 -10
-4 -10 -6 0 -11 5 -11 10 0 6 2 10 4 10 3 0 8 -4 11 -10z m-92 -26 c-7 -3 -9
-12 -6 -20 3 -8 1 -14 -5 -14 -8 0 -9 16 -3 38 1 1 7 2 14 1 9 0 9 -2 0 -5z
m-38 -24 c-3 -5 -12 -10 -18 -10 -7 0 -6 4 3 10 19 12 23 12 15 0z m75 0 c0
-5 -2 -10 -4 -10 -3 0 -8 5 -11 10 -3 6 -1 10 4 10 6 0 11 -4 11 -10z m267 4
c-3 -3 -12 -4 -19 -1 -8 3 -5 6 6 6 11 1 17 -2 13 -5z"/>
<path d="M2725 6620 c-4 -6 -11 -8 -16 -5 -13 9 -11 -9 3 -23 18 -18 26 -14
24 13 -1 28 -2 29 -11 15z"/>
<path d="M2745 6600 c3 -5 8 -10 11 -10 2 0 4 5 4 10 0 6 -5 10 -11 10 -5 0
-7 -4 -4 -10z"/>
<path d="M2585 6570 c3 -5 15 -10 26 -10 10 0 19 5 19 10 0 6 -12 10 -26 10
-14 0 -23 -4 -19 -10z"/>
<path d="M2968 6535 c-92 -18 -108 -29 -108 -69 l0 -34 64 5 c54 5 70 2 100
-16 51 -32 76 -17 76 47 0 26 -4 52 -8 58 -12 19 -55 22 -124 9z"/>
<path d="M1915 6510 c-16 -7 -17 -9 -3 -9 9 -1 20 4 23 9 7 11 7 11 -20 0z"/>
<path d="M2860 6405 c0 -17 2 -18 24 -9 18 7 12 24 -10 24 -8 0 -14 -7 -14
-15z"/>
<path d="M2574 6358 c-39 -10 -74 -47 -78 -84 -3 -16 -9 -42 -15 -57 -6 -16
-9 -32 -6 -37 4 -6 147 21 195 38 8 3 24 4 35 4 11 -1 34 9 50 23 24 20 26 25
12 25 -11 0 -30 -9 -44 -20 -29 -23 -43 -19 -23 6 12 13 11 17 -1 25 -8 5 -17
9 -20 9 -4 0 -10 7 -13 16 -3 8 -2 12 4 9 6 -3 10 -1 10 4 0 6 -8 11 -19 11
-10 0 -21 8 -23 18 -6 21 -18 22 -64 10z"/>
<path d="M2398 6343 c7 -3 16 -2 19 1 4 3 -2 6 -13 5 -11 0 -14 -3 -6 -6z"/>
<path d="M4930 6331 c0 -16 46 -35 66 -27 23 9 8 22 -33 31 -22 4 -33 3 -33
-4z"/>
<path d="M2357 6312 c-10 -10 -14 -22 -10 -25 3 -4 -1 -7 -9 -7 -9 0 -19 -7
-22 -16 -4 -11 -2 -15 8 -11 10 4 12 0 9 -14 -3 -11 -9 -22 -14 -25 -5 -3 -9
-21 -9 -40 0 -26 4 -34 18 -34 30 0 62 12 56 21 -3 5 2 9 11 9 10 0 15 7 13
18 -2 10 -12 16 -23 15 -11 -1 -14 0 -7 3 6 3 12 12 12 20 0 9 5 12 11 8 8 -5
9 -2 2 11 -6 10 -8 27 -5 38 4 14 2 18 -7 12 -10 -5 -11 -2 -6 14 8 26 -6 27
-28 3z"/>
<path d="M2804 6249 l-29 -19 25 1 c14 1 36 4 50 8 25 7 25 7 4 18 -16 10 -26
8 -50 -8z"/>
<path d="M4751 6169 c-15 -42 -14 -59 2 -59 18 0 39 48 32 71 -9 28 -22 23
-34 -12z"/>
<path d="M6057 6143 c-49 -36 -56 -50 -20 -36 16 6 84 75 71 72 -1 0 -25 -16
-51 -36z"/>
<path d="M5957 6163 c-11 -10 -8 -43 3 -43 6 0 10 11 10 25 0 26 -2 29 -13 18z"/>
<path d="M6137 6154 c-11 -11 -8 -49 5 -62 20 -20 27 -14 25 25 -3 35 -16 51
-30 37z"/>
<path d="M4540 6130 c0 -5 10 -10 23 -10 18 0 19 2 7 10 -19 13 -30 13 -30 0z"/>
<path d="M2651 6098 c-11 -4 -25 -17 -32 -29 -10 -20 -9 -25 11 -41 49 -40
130 -18 160 43 l18 39 -28 0 c-16 0 -32 -5 -35 -10 -4 -6 -11 -7 -18 -3 -15 9
-52 10 -76 1z"/>
<path d="M2510 6083 c-14 -2 -32 -7 -40 -10 -8 -3 -18 -5 -22 -5 -5 1 -8 -2
-8 -7 0 -4 -11 -6 -25 -3 -21 4 -25 1 -25 -20 0 -14 -3 -28 -7 -32 -10 -10 -3
-78 9 -93 7 -9 7 -13 -1 -13 -6 0 -11 -7 -11 -15 0 -20 2 -19 58 9 63 32 109
52 154 66 51 16 53 23 11 45 -31 17 -34 22 -30 52 6 35 2 37 -63 26z"/>
<path d="M4600 6044 c-15 -38 -12 -42 10 -14 22 28 25 40 10 40 -6 0 -15 -12
-20 -26z"/>
<path d="M2333 6050 c-34 -14 -27 -37 9 -31 4 0 5 -6 1 -15 -5 -14 -3 -15 15
-5 23 12 26 20 16 45 -7 18 -10 18 -41 6z"/>
<path d="M4126 6047 c-10 -7 -17 -22 -15 -32 4 -17 6 -15 22 9 21 32 18 41 -7
23z"/>
<path d="M4993 6048 c-27 -13 -29 -26 -8 -34 13 -5 13 -10 -2 -35 -20 -34 -16
-40 34 -49 l38 -8 -47 -1 c-29 -1 -48 -6 -48 -12 0 -7 -8 -18 -17 -25 -11 -8
-13 -13 -5 -14 22 0 13 -40 -13 -52 -33 -15 -31 -29 6 -51 39 -22 49 -15 49
34 0 44 24 74 66 85 19 5 29 2 36 -9 7 -13 18 -15 53 -10 41 5 47 3 72 -26 28
-32 47 -39 58 -21 10 16 -23 75 -56 100 -27 19 -35 20 -54 10 -29 -16 -65 -4
-65 21 0 10 -4 19 -10 19 -5 0 -10 5 -10 11 0 5 4 8 9 5 4 -3 17 1 27 9 18 13
18 14 -5 39 -26 28 -68 33 -108 14z m54 -54 c-3 -3 -12 -4 -19 -1 -8 3 -5 6 6
6 11 1 17 -2 13 -5z"/>
<path d="M6420 6050 c0 -5 5 -10 10 -10 6 0 10 5 10 10 0 6 -4 10 -10 10 -5 0
-10 -4 -10 -10z"/>
<path d="M2869 6027 c-39 -26 -37 -43 6 -38 39 4 45 8 45 31 0 30 -15 32 -51
7z"/>
<path d="M6055 5991 c-7 -12 31 -25 46 -15 8 4 7 9 -2 15 -18 11 -36 11 -44 0z"/>
<path d="M6195 5977 c-16 -5 -37 -15 -45 -22 -8 -7 -26 -16 -39 -20 -22 -7
-21 -8 19 -26 67 -30 94 -26 109 17 17 48 1 67 -44 51z"/>
<path d="M5970 5960 c0 -5 4 -10 9 -10 6 0 13 5 16 10 3 6 -1 10 -9 10 -9 0
-16 -4 -16 -10z"/>
<path d="M2718 5950 c-9 -6 -46 -19 -83 -31 -51 -15 -68 -26 -75 -45 -5 -13
-17 -24 -25 -24 -9 0 -13 5 -10 10 3 6 2 10 -3 10 -13 0 -62 -40 -62 -50 0
-11 32 -1 41 13 12 17 26 -2 32 -42 5 -44 6 -44 93 -139 53 -57 64 -65 83 -57
34 16 139 108 144 128 8 27 -18 69 -52 83 -40 17 -40 46 -1 74 17 12 30 26 30
32 0 5 10 18 23 29 22 18 22 18 -48 18 -38 0 -78 -4 -87 -9z"/>
<path d="M6512 5884 c9 -9 21 -13 27 -9 16 10 3 25 -22 25 -20 0 -20 -1 -5
-16z"/>
<path d="M6915 5870 c-3 -5 -1 -10 4 -10 6 0 11 5 11 10 0 6 -2 10 -4 10 -3 0
-8 -4 -11 -10z"/>
<path d="M2842 5859 c-18 -5 -30 -14 -27 -19 9 -15 36 -11 75 10 32 18 33 19
10 19 -14 -1 -40 -5 -58 -10z"/>
<path d="M5354 5855 c-8 -21 6 -41 17 -24 12 19 11 39 -1 39 -6 0 -13 -7 -16
-15z"/>
<path d="M4868 5853 c6 -2 18 -2 25 0 6 3 1 5 -13 5 -14 0 -19 -2 -12 -5z"/>
<path d="M5620 5846 c0 -18 27 -29 36 -14 4 5 0 14 -7 19 -20 13 -29 11 -29
-5z"/>
<path d="M6611 5844 c0 -11 3 -14 6 -6 3 7 2 16 -1 19 -3 4 -6 -2 -5 -13z"/>
<path d="M6713 5843 c-14 -5 -18 -33 -5 -33 4 0 13 5 20 12 22 22 14 33 -15
21z"/>
<path d="M6901 5824 c0 -11 3 -14 6 -6 3 7 2 16 -1 19 -3 4 -6 -2 -5 -13z"/>
<path d="M5792 5788 c3 -38 6 -43 26 -41 12 2 22 -2 22 -7 0 -16 27 -11 34 6
10 25 7 31 -15 37 -11 3 -23 15 -26 26 -3 12 -14 21 -25 21 -16 0 -19 -6 -16
-42z"/>
<path d="M5725 5791 c-3 -5 -1 -12 5 -16 5 -3 10 1 10 9 0 18 -6 21 -15 7z"/>
<path d="M2401 5776 c-6 -8 -31 -19 -55 -25 -51 -13 -78 -37 -55 -52 23 -14
39 -10 39 9 0 10 7 19 14 19 10 0 12 -6 7 -16 -12 -26 -13 -128 -1 -136 5 -3
24 -7 40 -7 29 -1 31 -4 35 -48 2 -35 16 -42 40 -20 25 24 24 35 -13 123 -18
42 -35 49 -30 13 1 -13 -3 -31 -11 -40 -34 -41 -42 2 -12 65 14 29 17 47 11
69 -6 21 -5 30 6 34 15 6 19 26 5 26 -5 0 -14 -6 -20 -14z"/>
<path d="M5080 5755 c0 -11 12 -15 44 -15 56 0 68 15 18 24 -54 9 -62 8 -62
-9z"/>
<path d="M5566 5761 c-3 -5 0 -11 8 -14 15 -6 26 1 26 15 0 11 -27 10 -34 -1z"/>
<path d="M2823 5657 c-45 -45 -63 -71 -63 -89 0 -15 -6 -29 -12 -31 -8 -3 -5
-6 5 -6 10 -1 51 12 90 28 151 61 167 69 161 86 -3 8 -17 15 -30 15 -16 0 -28
8 -36 25 -6 14 -15 25 -19 25 -4 0 -13 2 -21 5 -7 3 -41 -23 -75 -58z"/>
<path d="M4770 5713 c1 -5 16 -15 35 -24 33 -15 35 -15 35 1 0 10 -10 20 -22
24 -31 8 -48 7 -48 -1z"/>
<path d="M2476 5683 c-11 -11 -6 -58 9 -77 8 -11 15 -32 15 -48 0 -26 2 -27
25 -16 14 6 24 14 22 17 -1 3 -17 34 -34 68 -16 34 -33 60 -37 56z"/>
<path d="M3798 5476 c-6 -16 -21 -26 -37 -28 -36 -4 -42 -38 -7 -38 33 0 66
33 66 65 0 32 -7 32 -22 1z"/>
<path d="M4360 5375 c0 -8 5 -15 10 -15 6 0 10 7 10 15 0 8 -4 15 -10 15 -5 0
-10 -7 -10 -15z"/>
<path d="M5245 5313 c10 -59 13 -63 40 -63 32 0 32 13 -2 61 -35 49 -46 49
-38 2z"/>
<path d="M8065 5310 c-10 -11 -16 -22 -14 -25 7 -6 49 24 49 36 0 15 -16 10
-35 -11z"/>
<path d="M1536 5295 c4 -8 13 -15 21 -15 12 0 12 2 -1 15 -8 8 -17 15 -20 15
-3 0 -3 -7 0 -15z"/>
<path d="M7985 5280 c-11 -5 -34 -6 -51 -3 -40 6 -91 -32 -72 -54 14 -17 8
-23 -30 -26 -17 -1 -28 -4 -26 -6 7 -7 -39 -51 -53 -51 -8 0 -20 -15 -28 -32
-15 -38 -50 -78 -67 -78 -6 0 -20 8 -30 17 -18 16 -21 16 -51 -2 -54 -32 -232
-18 -272 21 -21 22 -30 11 -15 -17 10 -19 10 -24 -4 -34 -47 -35 31 -41 116
-10 33 13 39 12 62 -6 l26 -20 -28 -25 c-22 -21 -24 -24 -7 -20 86 20 104 19
143 -14 46 -40 66 -88 46 -111 -12 -13 -12 -18 0 -34 13 -18 16 -17 63 13 27
18 60 32 72 32 18 0 21 -5 19 -33 -1 -24 5 -40 27 -61 28 -28 28 -29 9 -43
-14 -11 -34 -13 -72 -9 -35 4 -51 3 -47 -4 3 -5 27 -10 52 -10 29 0 50 -5 57
-15 9 -13 16 -13 44 -3 39 15 67 2 67 -30 0 -12 6 -27 13 -34 19 -19 14 -54
-10 -71 -20 -14 -20 -16 -5 -16 10 -1 36 -20 58 -43 l40 -43 17 25 c30 44 51
60 80 60 16 0 37 7 48 15 29 22 85 19 91 -5 5 -18 9 -17 53 20 26 22 52 40 56
40 5 0 24 -14 43 -30 18 -17 36 -30 40 -31 3 0 19 -2 34 -3 25 -1 66 -37 67
-58 0 -4 5 -19 10 -33 10 -26 11 -27 35 -11 35 23 47 20 75 -19 28 -39 40 -42
75 -19 13 8 36 14 52 13 51 -4 63 0 63 21 0 13 10 24 26 30 33 13 22 28 -27
36 -43 7 -45 10 -24 38 22 29 18 43 -11 50 -20 5 -25 12 -21 27 3 12 -2 27
-15 39 -31 28 -50 72 -38 84 15 15 12 26 -8 26 -10 0 -25 9 -35 20 -9 11 -23
20 -31 20 -8 0 -17 7 -20 16 -8 21 -8 20 9 37 13 13 11 16 -11 21 -19 5 -25
12 -21 26 4 14 -2 20 -24 25 -16 4 -37 17 -47 30 -13 17 -31 24 -68 27 -27 3
-57 8 -66 12 -14 6 -18 3 -18 -12 0 -28 -52 -64 -83 -57 -15 4 -28 1 -35 -8
-11 -13 -20 -11 -70 9 -31 13 -63 24 -69 24 -20 0 -45 47 -45 85 0 19 -9 46
-19 59 -19 24 -19 25 3 32 20 6 21 7 4 19 -16 12 -14 15 18 41 34 28 35 29 16
46 -11 10 -26 18 -35 18 -11 0 -15 6 -10 19 6 19 -18 37 -35 26 -4 -3 -10 4
-13 15 -5 21 -28 25 -62 10z m-438 -306 c-3 -3 -12 -4 -19 -1 -8 3 -5 6 6 6
11 1 17 -2 13 -5z"/>
<path d="M5345 5227 c11 -9 31 -17 45 -17 34 0 13 18 -30 26 -33 6 -34 6 -15
-9z"/>
<path d="M5350 5191 c0 -6 5 -11 10 -11 6 0 10 -4 10 -9 0 -5 -8 -7 -19 -4
-10 3 -21 0 -25 -5 -3 -5 2 -9 11 -8 10 0 24 -13 34 -34 14 -29 18 -32 24 -17
7 17 9 16 42 -3 50 -29 60 -25 23 10 -27 25 -30 33 -20 46 18 20 4 32 -47 40
-29 4 -43 3 -43 -5z"/>
<path d="M5740 5147 l85 -41 -35 -7 c-19 -3 -29 -7 -22 -8 6 0 12 -8 12 -16 0
-17 -56 -22 -62 -5 -2 6 -9 1 -16 -10 -11 -18 -10 -20 15 -20 27 -1 27 -1 8
-16 -11 -8 -28 -13 -37 -10 -14 3 -18 -2 -18 -20 0 -25 15 -33 22 -13 6 18 47
-7 86 -52 35 -41 35 -41 110 -6 25 12 59 -2 55 -22 -2 -6 1 -11 7 -11 5 0 8
22 7 49 -2 37 -9 55 -25 68 -15 12 -19 22 -13 31 7 12 14 11 42 -3 l34 -16
-34 29 c-42 35 -67 49 -192 102 -124 51 -138 50 -29 -3z"/>
<path d="M3947 5150 c-6 -24 -43 -26 -71 -5 -22 17 -62 20 -71 5 -3 -5 0 -19
7 -31 12 -18 19 -20 68 -15 39 3 60 11 72 26 9 11 28 20 43 20 15 0 24 4 20
10 -3 6 -19 10 -34 10 -20 0 -30 -6 -34 -20z"/>
<path d="M7140 5149 c0 -5 5 -7 10 -4 6 3 10 8 10 11 0 2 -4 4 -10 4 -5 0 -10
-5 -10 -11z"/>
<path d="M6734 5134 c3 -9 6 -18 6 -20 0 -3 5 -2 10 1 16 10 12 35 -6 35 -11
0 -14 -5 -10 -16z"/>
<path d="M8336 5133 c-11 -11 -6 -23 9 -23 8 0 15 4 15 9 0 13 -16 22 -24 14z"/>
<path d="M5712 5118 c3 -7 13 -15 22 -16 12 -3 17 1 14 10 -3 7 -13 15 -22 16
-12 3 -17 -1 -14 -10z"/>
<path d="M6620 5061 c-14 -28 -13 -64 3 -55 7 4 9 3 4 -2 -5 -5 -35 -8 -68 -6
-38 2 -59 0 -59 -7 0 -7 25 -11 63 -12 48 0 57 -2 39 -10 -27 -10 -24 -34 10
-82 36 -51 110 -61 121 -16 5 19 12 21 60 17 40 -2 53 0 50 9 -3 7 -13 15 -24
18 -11 4 -17 11 -14 16 4 5 -2 12 -12 15 -10 3 -27 9 -38 14 -11 4 -38 15 -60
24 -27 10 -33 15 -19 15 21 1 34 24 34 64 0 26 -75 24 -90 -2z"/>
<path d="M7220 5050 c-22 -6 -23 -8 -7 -15 20 -8 47 0 47 15 0 11 -4 11 -40 0z"/>
<path d="M1654 5029 c-23 -15 -25 -19 -10 -19 10 0 25 8 32 18 13 16 13 16 14
-1 0 -12 -10 -19 -30 -23 -31 -7 -35 -21 -10 -41 12 -10 13 -14 2 -21 -11 -8
-11 -10 2 -15 9 -4 16 -1 17 6 0 7 5 2 11 -10 12 -25 55 -36 62 -17 3 8 12 11
21 8 10 -4 15 0 15 10 0 9 5 16 11 16 16 0 -3 99 -20 101 -3 0 -14 2 -23 4
-10 2 -18 -1 -18 -6 0 -5 -5 -9 -11 -9 -5 0 -8 4 -5 8 10 16 -32 10 -60 -9z"/>
<path d="M8422 5038 c-14 -14 -16 -38 -2 -38 9 0 30 31 30 44 0 10 -15 7 -28
-6z"/>
<path d="M6963 4999 c-14 -5 -14 -6 5 -11 14 -4 22 -14 22 -27 0 -17 6 -21 29
-21 39 0 61 9 61 26 0 7 12 20 26 27 24 13 21 14 -50 13 -41 0 -83 -3 -93 -7z"/>
<path d="M4185 4926 c-15 -11 -17 -17 -8 -27 9 -11 8 -20 -2 -39 -8 -14 -14
-29 -15 -35 0 -6 80 -9 224 -9 l224 2 31 33 c38 42 38 52 4 74 -27 18 -61 10
-56 -13 7 -29 -163 -38 -224 -12 -35 15 -42 16 -47 4 -8 -20 -21 -18 -66 11
-47 29 -41 29 -65 11z"/>
<path d="M6948 4908 c11 -14 9 -19 -10 -33 -16 -12 -19 -19 -10 -22 7 -3 19
-18 27 -34 9 -16 22 -29 30 -29 8 0 26 -16 41 -35 14 -19 31 -35 36 -35 5 0
19 12 31 26 15 17 34 27 54 28 46 2 48 10 9 44 -19 16 -32 32 -30 35 9 9 -104
59 -148 64 -38 6 -42 5 -30 -9z"/>
<path d="M1750 4866 c-9 -12 -8 -15 8 -13 12 0 18 6 15 14 -6 16 -8 16 -23 -1z"/>
<path d="M6698 4827 c-35 -14 -35 -21 1 -46 37 -26 47 -26 61 0 9 16 8 25 -6
40 -19 21 -18 21 -56 6z"/>
<path d="M1765 4810 c-3 -6 1 -7 9 -4 18 7 21 14 7 14 -6 0 -13 -4 -16 -10z"/>
<path d="M1832 4802 c2 -13 -5 -18 -33 -20 -36 -3 -37 -4 -26 -32 6 -16 18
-31 27 -34 13 -3 12 -4 -2 -5 -12 -1 -16 -10 -15 -36 1 -38 11 -46 21 -18 5
13 9 14 15 5 11 -18 34 -6 54 27 20 34 22 45 5 35 -9 -5 -9 -2 1 9 8 11 9 17
3 17 -7 0 -9 7 -5 17 5 12 2 15 -10 10 -11 -4 -15 -1 -12 13 2 10 -3 21 -11
24 -10 4 -14 0 -12 -12z"/>
<path d="M7263 4756 c-13 -6 -23 -18 -23 -26 0 -9 -5 -21 -12 -28 -15 -15 -10
-15 32 0 28 9 35 8 44 -5 7 -8 23 -17 36 -19 23 -3 25 -7 22 -45 -2 -28 1 -43
8 -43 7 0 10 -6 7 -12 -3 -7 -8 -20 -11 -28 -5 -12 3 -15 37 -15 28 0 53 -8
74 -23 23 -16 39 -20 62 -16 23 5 31 3 31 -8 0 -7 9 -31 20 -53 18 -35 24 -39
53 -37 24 2 46 -7 90 -38 65 -47 74 -75 28 -87 -29 -8 -30 -8 -13 -31 l18 -23
27 25 c15 14 27 35 27 48 0 13 4 29 9 36 4 7 3 31 -3 53 -8 31 -15 39 -33 39
-15 0 -28 10 -39 33 -9 17 -30 49 -46 70 -24 30 -33 35 -44 26 -25 -21 -63 -1
-99 55 -21 30 -52 62 -75 75 -22 12 -38 27 -35 32 4 5 0 9 -9 9 -8 0 -16 6
-19 13 -3 9 -11 9 -36 0 -28 -10 -34 -9 -60 13 -32 26 -35 27 -68 10z"/>
<path d="M4615 4750 c-18 -8 -17 -9 8 -9 15 -1 27 4 27 9 0 12 -8 12 -35 0z"/>
<path d="M4300 4723 c-42 -4 -182 -33 -193 -40 -14 -8 16 -35 61 -55 40 -18
46 -18 105 -3 69 17 217 83 217 97 0 8 -117 9 -190 1z"/>
<path d="M7180 4680 c0 -5 7 -7 15 -4 8 4 15 8 15 10 0 2 -7 4 -15 4 -8 0 -15
-4 -15 -10z"/>
<path d="M1860 4630 c0 -5 5 -10 11 -10 5 0 7 5 4 10 -3 6 -8 10 -11 10 -2 0
-4 -4 -4 -10z"/>
<path d="M7728 4618 c9 -9 15 -9 24 0 9 9 7 12 -12 12 -19 0 -21 -3 -12 -12z"/>
<path d="M7110 4601 c0 -11 31 -24 39 -16 3 3 -1 10 -9 15 -19 12 -30 12 -30
1z"/>
<path d="M5717 4574 c-11 -11 3 -24 25 -24 17 0 18 2 8 15 -13 16 -23 19 -33
9z"/>
<path d="M1980 4514 c0 -8 -4 -13 -8 -10 -5 3 -21 -6 -38 -19 -16 -13 -23 -24
-16 -25 6 0 12 -7 12 -15 0 -8 7 -15 15 -15 8 0 15 -7 15 -15 0 -17 52 -24
105 -14 13 3 19 -1 17 -9 -1 -8 2 -11 8 -7 5 3 8 20 6 38 -3 18 -5 38 -5 45
-1 6 -8 12 -17 12 -8 0 -12 5 -9 10 12 19 -16 40 -51 40 -24 0 -34 -5 -34 -16z
m10 -94 c0 -5 -5 -10 -11 -10 -5 0 -7 5 -4 10 3 6 8 10 11 10 2 0 4 -4 4 -10z
m40 1 c0 -6 -4 -13 -10 -16 -5 -3 -10 1 -10 9 0 9 5 16 10 16 6 0 10 -4 10 -9z"/>
<path d="M7314 4501 c-37 -23 -49 -55 -26 -73 14 -11 15 -10 8 7 -7 18 -5 18
17 -3 13 -12 26 -22 30 -22 4 0 6 25 6 55 -1 30 -2 55 -3 55 0 0 -15 -9 -32
-19z"/>
<path d="M7855 4500 c3 -5 16 -10 28 -10 18 0 19 2 7 10 -20 13 -43 13 -35 0z"/>
<path d="M4315 4460 c3 -5 8 -10 11 -10 2 0 4 5 4 10 0 6 -5 10 -11 10 -5 0
-7 -4 -4 -10z"/>
<path d="M7240 4440 c-7 -5 -14 -21 -15 -37 -2 -15 -6 -38 -10 -50 -6 -20 -4
-23 18 -23 20 0 28 8 41 41 16 40 16 43 -2 59 -12 11 -24 15 -32 10z"/>
<path d="M7301 4402 c0 -4 14 -18 32 -32 l32 -25 -20 27 c-20 27 -46 44 -44
30z"/>
<path d="M6470 4380 c0 -11 40 -34 47 -26 3 3 3 12 0 21 -7 16 -47 21 -47 5z"/>
<path d="M8640 4365 c-7 -9 -8 -15 -2 -15 5 0 12 7 16 15 3 8 4 15 2 15 -2 0
-9 -7 -16 -15z"/>
<path d="M2070 4351 c0 -25 18 -37 33 -21 9 10 9 11 0 6 -8 -4 -13 -1 -13 8 0
8 -4 18 -10 21 -5 3 -10 -3 -10 -14z"/>
<path d="M2182 4353 c-6 -2 -9 -10 -6 -15 5 -7 2 -8 -7 -2 -19 11 -40 14 -34
4 3 -4 -2 -10 -10 -14 -21 -8 -19 -26 3 -27 13 0 12 -3 -5 -11 -13 -6 -23 -16
-23 -22 0 -6 5 -5 12 2 7 7 16 12 20 12 13 0 9 -28 -4 -34 -7 -3 -2 -4 12 -3
19 1 25 -2 23 -17 -2 -28 21 -48 37 -33 10 9 12 9 7 -4 -4 -14 1 -17 29 -17
19 0 37 4 40 9 3 5 1 9 -5 9 -7 0 -7 8 -1 24 10 27 7 75 -6 85 -5 3 -14 15
-20 26 -7 12 -20 19 -33 18 -13 -2 -20 1 -16 7 7 11 6 11 -13 3z"/>
<path d="M8146 4335 c-7 -7 -26 -16 -43 -19 -43 -10 -56 -27 -39 -51 11 -15
27 -19 81 -19 52 -1 70 -5 79 -18 8 -13 6 -22 -10 -40 -12 -13 -24 -30 -27
-40 -3 -9 -18 -22 -34 -30 -38 -18 -43 -48 -8 -48 29 0 85 -26 85 -39 0 -8 73
-51 85 -51 3 0 5 11 5 25 0 14 5 25 11 25 6 0 22 9 36 20 14 11 34 20 45 20
23 0 43 18 53 49 7 22 15 23 56 7 11 -5 29 7 58 39 39 42 41 49 39 95 -3 54
-11 59 -47 34 -15 -11 -34 -14 -56 -11 -34 6 -55 -6 -55 -32 0 -8 -7 -22 -16
-32 -13 -14 -21 -15 -45 -7 -16 5 -29 14 -29 19 0 5 -12 9 -27 9 -37 0 -50 10
-72 53 -10 20 -15 34 -10 31 5 -3 14 -2 20 2 8 4 7 9 -2 15 -20 12 -59 11 -59
-2 0 -5 -6 -7 -12 -3 -20 13 -49 12 -62 -1z"/>
<path d="M6835 4290 c3 -5 8 -10 11 -10 2 0 4 5 4 10 0 6 -5 10 -11 10 -5 0
-7 -4 -4 -10z"/>
<path d="M7540 4270 c0 -5 9 -10 21 -10 11 0 17 5 14 10 -3 6 -13 10 -21 10
-8 0 -14 -4 -14 -10z"/>
<path d="M7670 4260 c-13 -8 -12 -11 5 -24 11 -9 29 -15 40 -15 11 0 14 3 7 6
-6 2 -9 9 -6 15 4 6 0 14 -7 19 -18 11 -21 11 -39 -1z"/>
<path d="M7503 4185 c-3 -9 -3 -19 1 -22 7 -7 36 16 36 28 0 15 -30 10 -37 -6z"/>
<path d="M7750 4131 c0 -15 -5 -32 -10 -37 -16 -16 -1 -47 19 -38 9 4 36 7 61
5 25 -1 61 1 80 4 l35 7 -25 14 c-14 7 -35 13 -47 14 -12 0 -27 8 -32 18 -5
10 -26 23 -45 29 -35 11 -36 10 -36 -16z"/>
<path d="M2360 4138 c0 -11 8 -18 19 -18 22 0 36 16 22 24 -5 4 -13 1 -17 -5
-4 -8 -9 -7 -15 2 -7 11 -9 10 -9 -3z"/>
<path d="M2447 4133 c-3 -5 -2 -15 2 -22 5 -7 11 -9 14 -4 3 5 2 15 -2 22 -5
7 -11 9 -14 4z"/>
<path d="M2250 4110 c0 -5 5 -10 11 -10 5 0 7 5 4 10 -3 6 -8 10 -11 10 -2 0
-4 -4 -4 -10z"/>
<path d="M7440 4101 c0 -11 5 -23 10 -26 6 -4 10 5 10 19 0 14 -4 26 -10 26
-5 0 -10 -9 -10 -19z"/>
<path d="M3394 4073 c-89 -81 -146 -118 -173 -114 -7 1 -10 -2 -6 -8 3 -6 0
-11 -8 -11 -8 0 -39 -19 -70 -42 -30 -24 -64 -48 -74 -55 -14 -9 -15 -14 -5
-21 16 -11 136 10 157 28 8 7 15 9 15 5 0 -4 7 -2 15 5 8 6 19 9 25 5 5 -3 10
-2 10 3 0 6 7 13 16 16 9 3 12 2 8 -5 -7 -12 61 22 90 46 11 8 17 18 13 21 -4
4 1 13 11 21 16 13 15 14 -4 10 -20 -4 -21 -2 -13 24 5 16 13 43 18 59 11 34
3 38 -25 13z"/>
<path d="M8435 4060 c-3 -5 1 -10 9 -10 9 0 16 5 16 10 0 6 -4 10 -9 10 -6 0
-13 -4 -16 -10z"/>
<path d="M7464 4035 c11 -8 24 -15 30 -15 5 0 1 7 -10 15 -10 8 -23 14 -29 14
-5 0 -1 -6 9 -14z"/>
<path d="M7790 4032 c0 -13 46 -53 53 -46 9 9 -23 54 -39 54 -8 0 -14 -4 -14
-8z"/>
<path d="M7923 3969 c14 -8 22 -8 30 0 8 8 3 11 -18 11 -26 -1 -28 -2 -12 -11z"/>
<path d="M2985 3901 c-117 -62 -116 -62 -68 -58 24 2 46 6 50 10 3 4 17 7 29
7 13 0 26 5 29 10 4 6 10 8 13 6 15 -9 53 30 46 47 -9 23 -19 21 -99 -22z"/>
<path d="M7467 3913 c-5 -26 -4 -26 9 -8 16 22 18 35 5 35 -5 0 -11 -12 -14
-27z"/>
<path d="M2547 3909 c7 -7 15 -10 18 -7 3 3 -2 9 -12 12 -14 6 -15 5 -6 -5z"/>
<path d="M7395 3890 c3 -5 8 -10 11 -10 2 0 4 5 4 10 0 6 -5 10 -11 10 -5 0
-7 -4 -4 -10z"/>
<path d="M8045 3742 c-34 -7 -39 -20 -11 -28 30 -7 39 -2 34 18 -1 8 -12 12
-23 10z"/>
<path d="M40 3570 c-9 -6 -10 -10 -3 -10 6 0 15 5 18 10 8 12 4 12 -15 0z"/>
<path d="M70 3460 c0 -7 -7 -10 -15 -7 -8 4 -17 2 -20 -3 -8 -12 25 -13 44 -1
9 6 10 11 2 15 -6 4 -11 2 -11 -4z"/>
<path d="M112 3455 c15 -16 20 -17 30 -6 11 11 10 13 0 7 -7 -4 -21 -2 -30 5
-15 12 -15 11 0 -6z"/>
<path d="M5 3440 c-3 -5 -1 -10 4 -10 6 0 11 5 11 10 0 6 -2 10 -4 10 -3 0 -8
-4 -11 -10z"/>
<path d="M14 3415 c-18 -14 -18 -14 4 -8 12 3 22 9 22 14 0 12 -3 11 -26 -6z"/>
<path d="M88 3423 c7 -3 16 -2 19 1 4 3 -2 6 -13 5 -11 0 -14 -3 -6 -6z"/>
<path d="M108 3383 c7 -3 16 -2 19 1 4 3 -2 6 -13 5 -11 0 -14 -3 -6 -6z"/>
<path d="M176 3377 c-17 -13 -18 -14 -2 -20 10 -4 14 -3 11 2 -3 6 3 14 12 20
10 6 13 11 7 11 -5 0 -18 -6 -28 -13z"/>
<path d="M288 3322 c-17 -7 -17 -8 0 -18 15 -10 18 -8 18 7 0 11 0 19 -1 18 0
0 -8 -4 -17 -7z"/>
<path d="M307 3229 c7 -7 15 -10 18 -7 3 3 -2 9 -12 12 -14 6 -15 5 -6 -5z"/>
<path d="M384 3218 c-4 -7 -4 -10 1 -6 4 4 15 2 24 -5 14 -11 14 -10 2 6 -16
20 -18 21 -27 5z"/>
<path d="M435 3190 c-3 -6 1 -7 9 -4 9 3 16 1 16 -5 0 -6 5 -11 11 -11 8 0 8
5 -1 15 -14 17 -26 19 -35 5z"/>
<path d="M535 3180 c-3 -5 1 -10 9 -10 10 0 13 -6 9 -17 -6 -16 -5 -16 10 -4
13 10 15 17 6 27 -14 17 -25 18 -34 4z"/>
<path d="M491 3164 c0 -11 3 -14 6 -6 3 7 2 16 -1 19 -3 4 -6 -2 -5 -13z"/>
<path d="M566 3125 c-3 -8 0 -17 6 -21 7 -4 8 -3 4 4 -9 14 6 16 20 2 5 -5 15
-5 23 -1 9 6 5 11 -17 19 -24 8 -32 7 -36 -3z"/>
<path d="M610 3060 c-8 -26 -7 -41 2 -32 6 6 8 16 5 24 -3 7 -6 11 -7 8z"/>
<path d="M787 2979 c7 -7 15 -10 18 -7 3 3 -2 9 -12 12 -14 6 -15 5 -6 -5z"/>
<path d="M850 2976 c0 -2 7 -7 16 -10 8 -3 12 -2 9 4 -6 10 -25 14 -25 6z"/>
<path d="M740 2960 c-12 -8 -10 -10 8 -10 13 0 20 4 17 10 -7 12 -6 12 -25 0z"/>
<path d="M846 2945 c-9 -26 -7 -32 5 -12 6 10 9 21 6 23 -2 3 -7 -2 -11 -11z"/>
<path d="M1083 2898 c-1 -42 -3 -49 -13 -43 -5 3 -10 1 -10 -5 0 -7 -6 -10
-13 -7 -8 3 -14 -3 -14 -14 -2 -17 0 -18 13 -4 9 8 22 15 30 15 8 0 14 6 14
14 0 8 7 17 16 20 11 4 15 2 11 -8 -4 -10 -1 -13 8 -9 12 4 11 10 -6 34 -24
35 -36 37 -36 7z"/>
<path d="M1030 2895 c0 -7 30 -13 34 -7 3 4 -4 9 -15 9 -10 1 -19 0 -19 -2z"/>
<path d="M1018 2873 c7 -3 16 -2 19 1 4 3 -2 6 -13 5 -11 0 -14 -3 -6 -6z"/>
<path d="M1086 2812 c-3 -5 1 -9 9 -9 8 0 12 4 9 9 -3 4 -7 8 -9 8 -2 0 -6 -4
-9 -8z"/>
<path d="M1259 2778 c-8 -27 -5 -36 9 -30 10 4 12 7 4 10 -7 2 -10 8 -6 13 3
5 3 9 0 9 -3 0 -6 -1 -7 -2z"/>
<path d="M1185 2760 c-3 -6 1 -7 9 -4 18 7 21 14 7 14 -6 0 -13 -4 -16 -10z"/>
<path d="M1416 2755 c-6 -16 11 -20 32 -6 11 7 10 10 -3 15 -22 8 -22 8 -29
-9z"/>
<path d="M1477 2722 c-9 -2 -15 -8 -11 -13 3 -6 12 -5 22 3 13 11 15 11 10 -3
-5 -14 0 -17 27 -16 19 0 33 6 32 11 -1 6 4 10 11 8 8 -1 11 2 7 7 -4 7 -14 6
-30 -1 -16 -7 -29 -8 -37 -1 -7 5 -21 8 -31 5z"/>
<path d="M1250 2700 c-8 -5 -12 -12 -9 -15 4 -3 12 1 19 10 14 17 11 19 -10 5z"/>
<path d="M1465 2680 c-3 -5 -1 -10 4 -10 6 0 11 5 11 10 0 6 -2 10 -4 10 -3 0
-8 -4 -11 -10z"/>
<path d="M1342 2665 c8 -8 58 -13 58 -6 0 4 -14 8 -31 9 -17 0 -29 -1 -27 -3z"/>
<path d="M1456 2628 c3 -4 9 -8 15 -8 5 0 9 4 9 8 0 5 -7 9 -15 9 -8 0 -12 -4
-9 -9z"/>
<path d="M1545 2630 c-3 -5 -3 -10 2 -10 4 0 1 -5 -7 -11 -12 -8 -12 -10 -1
-7 8 2 15 12 17 21 3 19 -2 22 -11 7z"/>
<path d="M1578 2609 c7 -9 9 -25 6 -35 -6 -17 -5 -17 9 1 8 11 15 20 14 20 -1
1 -11 7 -22 15 -18 14 -19 13 -7 -1z"/>
<path d="M1405 2590 c3 -5 11 -10 16 -10 6 0 7 5 4 10 -3 6 -11 10 -16 10 -6
0 -7 -4 -4 -10z"/>
<path d="M1675 2591 c-3 -5 -1 -12 4 -15 5 -3 11 1 15 9 6 16 -9 21 -19 6z"/>
<path d="M1766 2581 c-4 -6 -2 -11 4 -11 6 0 15 -10 20 -22 8 -20 9 -21 9 -4
1 11 4 16 7 13 4 -3 15 -2 25 4 20 10 28 -4 9 -16 -6 -4 -8 -10 -5 -15 3 -5 1
-19 -5 -30 -8 -15 -8 -18 3 -14 8 3 14 17 13 32 -1 24 3 27 28 25 27 -2 28 -1
11 17 -12 13 -27 17 -58 15 -23 -2 -45 2 -48 7 -4 7 -9 6 -13 -1z"/>
<path d="M1729 2562 c7 -5 11 -15 7 -21 -5 -7 -1 -8 11 -4 15 6 16 4 5 -9 -10
-12 -9 -18 3 -28 10 -9 15 -9 15 -1 0 6 -5 11 -10 11 -6 0 -5 8 2 20 14 22 12
25 -22 34 -17 5 -21 4 -11 -2z"/>
<path d="M1660 2540 c-13 -8 -12 -10 3 -10 9 0 17 5 17 10 0 12 -1 12 -20 0z"/>
<path d="M1865 2510 c-3 -5 0 -10 7 -10 10 0 9 -3 -2 -10 -8 -5 -11 -12 -7
-17 9 -9 28 17 21 29 -3 4 1 8 10 8 8 0 16 -5 18 -12 3 -7 9 -8 18 -3 11 7 10
10 -6 16 -28 11 -52 11 -59 -1z"/>
<path d="M1955 2501 c-3 -5 -2 -12 3 -15 5 -3 9 1 9 9 0 17 -3 19 -12 6z"/>
<path d="M1946 2448 c3 -5 10 -6 15 -3 13 9 11 12 -6 12 -8 0 -12 -4 -9 -9z"/>
<path d="M1891 2418 c0 -16 2 -18 6 -8 3 8 11 18 17 22 7 5 4 8 -6 8 -12 0
-18 -7 -17 -22z"/>
<path d="M2206 2424 c-18 -13 -22 -54 -5 -54 5 0 7 -4 4 -10 -3 -5 0 -7 8 -4
8 3 18 -5 25 -18 6 -13 11 -17 11 -10 1 10 6 10 24 1 22 -12 22 -12 2 8 -14
14 -22 17 -27 9 -6 -8 -8 -8 -8 1 0 20 19 25 36 9 19 -19 28 -21 18 -3 -16 28
-27 36 -38 30 -21 -14 -36 -11 -46 7 -9 17 -4 30 12 30 5 0 6 -5 2 -11 -4 -8
0 -8 15 0 14 8 21 8 21 1 0 -5 5 -10 10 -10 6 0 5 8 -2 19 -13 21 -38 23 -62
5z"/>
<path d="M1947 2423 c-10 -10 -8 -23 4 -23 5 0 8 4 5 9 -4 5 0 12 6 14 7 3 8
6 2 6 -6 1 -14 -2 -17 -6z"/>
<path d="M2110 2415 c0 -8 -7 -15 -15 -15 -8 0 -15 -4 -15 -8 0 -5 7 -9 15 -9
8 0 15 4 15 9 0 5 9 4 19 -2 14 -7 22 -7 26 0 4 6 11 8 16 5 5 -4 9 -1 9 5 0
7 -7 10 -15 6 -8 -3 -22 -3 -31 1 -13 5 -13 7 -2 14 10 7 9 9 -4 9 -10 0 -18
-7 -18 -15z"/>
<path d="M2056 2407 c3 -10 9 -15 12 -12 3 3 0 11 -7 18 -10 9 -11 8 -5 -6z"/>
<path d="M2170 2364 c0 -8 5 -12 10 -9 6 4 8 11 5 16 -9 14 -15 11 -15 -7z"/>
<path d="M2125 2330 c-3 -5 -1 -10 4 -10 6 0 11 5 11 10 0 6 -2 10 -4 10 -3 0
-8 -4 -11 -10z"/>
<path d="M2196 2319 c2 -4 -2 -10 -8 -12 -7 -3 -8 -6 -2 -6 5 -1 18 5 28 12
16 12 16 13 -3 13 -11 0 -18 -3 -15 -7z"/>
<path d="M2257 2313 c-4 -3 -7 -13 -7 -22 1 -13 3 -13 11 2 11 19 8 33 -4 20z"/>
<path d="M2415 2311 c3 -5 1 -13 -5 -16 -6 -4 -8 -16 -5 -28 5 -17 4 -19 -4
-7 -13 18 -15 1 -2 -18 7 -11 9 -11 14 2 4 9 16 14 34 12 33 -4 46 1 37 15 -4
6 -10 6 -19 -1 -16 -13 -45 -2 -45 17 0 13 3 13 15 3 9 -7 19 -10 23 -6 4 4
-2 14 -12 22 -22 16 -40 19 -31 5z"/>
<path d="M2380 2295 c0 -8 2 -15 4 -15 2 0 6 7 10 15 3 8 1 15 -4 15 -6 0 -10
-7 -10 -15z"/>
<path d="M2330 2286 c0 -5 -8 -15 -17 -23 -10 -8 -12 -12 -5 -8 6 3 12 0 13
-7 0 -7 4 -3 9 10 5 12 16 22 25 22 8 0 15 4 15 9 0 6 -9 9 -20 8 -11 -1 -20
-5 -20 -11z"/>
<path d="M2275 2270 c-3 -5 -1 -10 4 -10 6 0 11 5 11 10 0 6 -2 10 -4 10 -3 0
-8 -4 -11 -10z"/>
<path d="M2465 2220 c-3 -6 1 -7 9 -4 18 7 21 14 7 14 -6 0 -13 -4 -16 -10z"/>
<path d="M2420 2210 c-13 -8 -12 -10 3 -10 12 0 16 -4 11 -12 -4 -7 -3 -9 1
-5 11 9 16 37 7 37 -4 0 -14 -5 -22 -10z"/>
<path d="M2586 2205 c-3 -8 -16 -15 -28 -16 -22 -1 -20 -2 21 -15 11 -3 11 -7
1 -19 -11 -13 -10 -14 4 -9 10 4 15 13 11 21 -4 11 0 14 12 9 16 -5 16 -5 2 6
-9 7 -14 19 -12 26 6 17 -4 15 -11 -3z"/>
<path d="M2476 2193 c-8 -9 14 -33 30 -33 8 0 14 4 14 10 0 5 -7 6 -17 3 -10
-4 -14 -2 -9 5 7 12 -8 25 -18 15z"/>
<path d="M2636 2174 c-3 -7 3 -10 15 -7 11 3 19 0 19 -7 0 -10 3 -10 15 0 9 7
19 10 22 6 4 -4 1 -12 -7 -17 -12 -9 -12 -10 3 -5 9 3 17 1 17 -4 0 -6 10 -10
21 -10 21 0 20 1 -5 21 -14 11 -24 24 -22 28 3 4 -13 7 -34 7 -22 -1 -42 -6
-44 -12z"/>
<path d="M2550 2160 c-9 -6 -10 -10 -3 -10 6 0 15 5 18 10 8 12 4 12 -15 0z"/>
<path d="M2630 2140 c0 -5 5 -10 11 -10 5 0 7 -6 3 -12 -12 -18 -12 -48 -1
-48 5 0 7 9 4 20 -3 12 1 23 11 29 13 7 12 10 -6 20 -15 8 -22 8 -22 1z"/>
<path d="M2796 2127 c3 -10 9 -15 12 -12 3 3 0 11 -7 18 -10 9 -11 8 -5 -6z"/>
<path d="M2754 2104 c11 -8 24 -14 29 -14 4 0 5 -5 2 -10 -5 -8 -12 -7 -23 2
-15 11 -15 11 -5 -3 7 -9 10 -18 8 -21 -3 -3 5 -3 18 -1 13 3 24 10 23 16 0
17 -29 42 -51 44 -20 2 -20 1 -1 -13z"/>
<path d="M2945 2110 c3 -5 8 -10 11 -10 2 0 4 5 4 10 0 6 -5 10 -11 10 -5 0
-7 -4 -4 -10z"/>
<path d="M2565 2090 c-13 -6 -15 -9 -5 -9 8 0 22 4 30 9 18 12 2 12 -25 0z"/>
<path d="M2685 2092 c-5 -4 -17 -16 -25 -27 -14 -18 -13 -19 1 -8 9 7 20 9 24
5 5 -4 5 -2 1 5 -3 6 2 16 11 22 10 6 14 10 8 11 -5 0 -14 -4 -20 -8z"/>
<path d="M2828 2093 c6 -2 12 -9 12 -14 0 -6 -4 -7 -10 -4 -16 10 -11 -11 6
-26 19 -16 42 -20 49 -9 3 4 15 6 28 4 20 -4 20 -4 2 5 -11 4 -23 7 -27 4 -5
-2 -8 0 -8 6 0 5 5 11 10 13 6 2 1 9 -11 16 -12 8 -18 9 -14 3 3 -6 2 -11 -4
-11 -5 0 -13 5 -16 10 -3 6 -12 10 -18 9 -9 0 -9 -2 1 -6z m45 -36 c3 -8 -1
-14 -9 -14 -7 0 -15 6 -18 14 -3 7 1 13 8 13 8 0 16 -6 19 -13z"/>
<path d="M2926 2025 c-15 -11 -16 -17 -8 -28 7 -8 9 -17 5 -20 -3 -4 1 -7 11
-7 11 0 15 -4 10 -12 -5 -9 -2 -9 9 1 9 7 17 16 17 19 0 3 -3 3 -6 -1 -3 -3
-14 2 -24 10 -14 12 -15 19 -7 28 7 7 15 11 20 8 4 -2 7 1 7 6 0 15 -11 13
-34 -4z"/>
<path d="M3023 2018 c0 -13 1 -17 4 -10 4 10 8 10 18 2 8 -6 12 -17 9 -24 -2
-6 4 -12 16 -13 20 -2 20 -2 0 20 -11 11 -20 27 -20 34 0 23 -26 14 -27 -9z"/>
<path d="M3072 2016 c10 -7 16 -15 13 -18 -3 -2 2 -5 10 -5 13 0 13 3 -2 19
-9 10 -21 18 -27 18 -6 0 -3 -7 6 -14z"/>
<path d="M2995 1988 c1 -12 8 -24 16 -26 12 -3 12 -2 0 6 -10 7 -10 11 -1 14
9 3 8 7 -2 16 -12 10 -14 8 -13 -10z"/>
<path d="M3111 1979 c-17 -38 -12 -42 17 -14 19 18 21 24 10 33 -11 8 -17 4
-27 -19z"/>
<path d="M2977 1929 c7 -7 15 -10 18 -7 3 3 -2 9 -12 12 -14 6 -15 5 -6 -5z"/>
<path d="M3061 1916 c-27 -10 -31 -14 -18 -19 9 -3 17 -2 17 3 0 6 6 10 14 10
8 0 18 5 21 10 3 6 5 10 3 9 -2 0 -18 -6 -37 -13z"/>
<path d="M3156 1903 c-6 -14 -5 -15 5 -6 7 7 10 15 7 18 -3 3 -9 -2 -12 -12z"/>
<path d="M3344 1894 c5 -18 3 -22 -9 -18 -8 3 -12 10 -9 15 10 17 -5 9 -27
-13 l-21 -23 7 25 c4 18 3 21 -3 11 -8 -11 -11 -10 -15 5 -4 15 -5 15 -6 3 0
-9 8 -27 19 -40 11 -13 19 -18 18 -10 -2 7 3 16 11 19 8 3 11 0 7 -7 -5 -7 -1
-9 9 -5 13 5 15 2 9 -20 -4 -17 -2 -26 6 -26 6 0 8 5 4 13 -4 6 8 -4 26 -23
19 -19 33 -38 33 -41 -1 -3 5 -6 12 -6 11 0 12 4 3 14 -8 10 -7 17 8 29 18 14
18 15 -3 5 -16 -8 -26 -7 -41 7 -28 23 -38 62 -18 62 9 0 19 0 24 1 10 1 25
29 18 36 -3 4 -6 1 -6 -6 0 -7 -5 -9 -10 -6 -6 4 -8 9 -6 13 2 4 -7 8 -21 8
-21 2 -24 -1 -19 -22z m30 -5 c-6 -11 -24 -2 -24 11 0 5 7 7 15 4 8 -4 12 -10
9 -15z"/>
<path d="M3095 1891 c-3 -5 -2 -12 3 -15 5 -3 9 1 9 9 0 17 -3 19 -12 6z"/>
<path d="M3200 1870 c-9 -6 -10 -10 -3 -10 6 0 15 5 18 10 8 12 4 12 -15 0z"/>
<path d="M3227 1859 c-3 -12 -3 -18 0 -15 3 3 12 -2 20 -12 13 -15 13 -15 4 5
-14 28 -14 36 1 27 7 -4 8 -3 4 4 -11 18 -23 14 -29 -9z"/>
<path d="M3590 1840 c0 -5 5 -10 11 -10 5 0 7 5 4 10 -3 6 -8 10 -11 10 -2 0
-4 -4 -4 -10z"/>
<path d="M3370 1836 c0 -2 7 -9 15 -16 12 -10 15 -10 15 4 0 9 -7 16 -15 16
-8 0 -15 -2 -15 -4z"/>
<path d="M3106 1807 c3 -10 9 -15 12 -12 3 3 0 11 -7 18 -10 9 -11 8 -5 -6z"/>
<path d="M3578 1806 c-10 -7 -15 -16 -11 -19 10 -10 25 -8 19 2 -4 5 0 11 6
14 7 2 11 7 8 10 -3 3 -13 0 -22 -7z"/>
<path d="M3170 1771 c0 -6 4 -13 10 -16 6 -3 7 1 4 9 -7 18 -14 21 -14 7z"/>
<path d="M3602 1675 c-11 -12 -10 -15 3 -15 8 0 15 7 15 15 0 18 -2 18 -18 0z"/>
<path d="M3959 1678 c-1 -7 -2 -21 -2 -30 0 -10 -4 -18 -8 -18 -8 0 -13 20
-11 41 2 12 -27 5 -32 -7 -3 -8 -12 -11 -21 -8 -11 5 -14 2 -9 -10 3 -9 11
-16 18 -16 6 0 5 -4 -4 -9 -8 -6 -17 -8 -21 -5 -4 2 -9 -5 -12 -16 -3 -13 0
-20 10 -20 8 0 12 4 8 9 -8 13 9 22 53 27 20 3 39 9 40 14 2 6 8 10 13 10 6 0
8 -4 5 -9 -3 -4 6 -6 19 -3 14 2 25 8 25 13 0 5 -7 6 -16 2 -12 -4 -15 -2 -12
8 3 8 -2 19 -11 26 -21 16 -31 16 -32 1z m-29 -42 c0 -3 -4 -8 -10 -11 -5 -3
-10 -1 -10 4 0 6 5 11 10 11 6 0 10 -2 10 -4z"/>
<path d="M3830 1673 c1 -11 26 -43 34 -43 14 0 -2 45 -17 48 -10 2 -17 0 -17
-5z"/>
<path d="M3550 1660 c0 -5 5 -10 11 -10 5 0 7 5 4 10 -3 6 -8 10 -11 10 -2 0
-4 -4 -4 -10z"/>
<path d="M3748 1623 c7 -3 16 -2 19 1 4 3 -2 6 -13 5 -11 0 -14 -3 -6 -6z"/>
<path d="M3830 1600 c-6 -11 -7 -20 -2 -20 6 0 12 9 15 20 3 11 3 20 1 20 -2
0 -8 -9 -14 -20z"/>
<path d="M3720 1566 c0 -2 7 -7 16 -10 8 -3 12 -2 9 4 -6 10 -25 14 -25 6z"/>
<path d="M3830 1559 c0 -5 5 -7 10 -4 6 3 10 8 10 11 0 2 -4 4 -10 4 -5 0 -10
-5 -10 -11z"/>
<path d="M3675 1550 c3 -5 8 -10 11 -10 2 0 4 5 4 10 0 6 -5 10 -11 10 -5 0
-7 -4 -4 -10z"/>
<path d="M3914 1539 c-3 -6 -15 -8 -27 -5 -16 4 -17 3 -6 -7 8 -7 20 -19 28
-27 11 -13 12 -12 6 9 -5 16 -4 21 4 17 6 -4 11 0 11 8 0 19 -6 20 -16 5z"/>
<path d="M4115 1536 c-24 -17 -14 -42 19 -48 18 -4 26 -1 26 9 0 8 -3 12 -8 9
-4 -2 -16 3 -27 11 -16 13 -17 15 -2 10 11 -4 17 -1 17 8 0 18 -2 18 -25 1z"/>
<path d="M3820 1536 c0 -2 7 -7 16 -10 8 -3 12 -2 9 4 -6 10 -25 14 -25 6z"/>
<path d="M3940 1531 c0 -6 4 -13 10 -16 6 -3 7 1 4 9 -7 18 -14 21 -14 7z"/>
<path d="M3718 1518 c5 -5 16 -8 23 -6 8 3 3 7 -10 11 -17 4 -21 3 -13 -5z"/>
<path d="M3863 1508 c3 -9 1 -18 -6 -21 -8 -2 -8 -5 0 -10 15 -9 23 17 11 34
-8 11 -9 11 -5 -3z"/>
<path d="M4064 1496 c-10 -8 -16 -18 -11 -22 4 -4 7 -2 7 5 0 7 4 10 9 7 5 -3
11 1 15 9 7 19 5 19 -20 1z"/>
<path d="M3950 1491 c0 -6 5 -13 10 -16 6 -3 10 1 10 9 0 9 -4 16 -10 16 -5 0
-10 -4 -10 -9z"/>
<path d="M4230 1482 c0 -5 7 -9 15 -9 8 0 15 4 15 9 0 4 -7 8 -15 8 -8 0 -15
-4 -15 -8z"/>
<path d="M4095 1470 c-3 -5 1 -10 10 -10 9 0 13 5 10 10 -3 6 -8 10 -10 10 -2
0 -7 -4 -10 -10z"/>
<path d="M4130 1465 c0 -8 0 -17 0 -20 0 -3 3 -4 7 -2 5 1 7 8 5 14 -2 8 4 11
15 7 15 -5 16 -4 3 5 -21 15 -30 14 -30 -4z"/>
<path d="M4029 1468 c-5 -18 -6 -38 -1 -34 7 8 12 36 6 36 -2 0 -4 -1 -5 -2z"/>
<path d="M4227 1443 c3 -8 12 -12 20 -9 8 3 17 6 19 6 2 0 4 4 4 9 0 5 -11 9
-24 9 -17 0 -23 -5 -19 -15z"/>
<path d="M4160 1435 c0 -8 2 -15 4 -15 2 0 6 7 10 15 3 8 1 15 -4 15 -6 0 -10
-7 -10 -15z"/>
<path d="M4100 1420 c-8 -5 -12 -12 -9 -15 4 -3 12 1 19 10 14 17 11 19 -10 5z"/>
<path d="M4247 1423 c-4 -3 -7 -11 -7 -17 0 -6 5 -5 12 2 6 6 9 14 7 17 -3 3
-9 2 -12 -2z"/>
<path d="M3900 1412 c0 -5 7 -9 15 -9 8 0 12 4 9 9 -3 4 -9 8 -15 8 -5 0 -9
-4 -9 -8z"/>
<path d="M4180 1409 c0 -5 -6 -7 -12 -3 -7 4 -9 3 -5 -1 13 -15 34 -14 34 1 0
8 -4 14 -9 14 -4 0 -8 -5 -8 -11z"/>
<path d="M4203 1381 c-9 -15 -10 -22 -1 -27 6 -4 8 -3 4 4 -3 5 -1 12 5 14 7
2 10 9 8 16 -3 8 -9 5 -16 -7z"/>
<path d="M4260 1351 c0 -6 4 -12 8 -15 5 -3 9 1 9 9 0 8 -4 15 -9 15 -4 0 -8
-4 -8 -9z"/>
<path d="M4295 1350 c3 -5 8 -10 11 -10 2 0 4 5 4 10 0 6 -5 10 -11 10 -5 0
-7 -4 -4 -10z"/>
<path d="M4240 1330 c0 -5 5 -10 11 -10 5 0 7 5 4 10 -3 6 -8 10 -11 10 -2 0
-4 -4 -4 -10z"/>
<path d="M4200 1309 c0 -5 5 -7 10 -4 6 3 10 8 10 11 0 2 -4 4 -10 4 -5 0 -10
-5 -10 -11z"/>
<path d="M4450 1303 c0 -17 6 -23 23 -23 16 0 18 3 8 9 -7 5 -17 15 -22 22 -6
10 -9 8 -9 -8z"/>
<path d="M4415 1300 c-3 -5 -2 -10 4 -10 5 0 13 5 16 10 3 6 2 10 -4 10 -5 0
-13 -4 -16 -10z"/>
</g>
</svg>
